<svg xmlns="http://www.w3.org/2000/svg" viewBox="0 0 48 48"><defs><linearGradient id="0" x1="-25.15" y1="4.615" x2="-27.708" y2="-21.16" gradientUnits="userSpaceOnUse"><stop stop-color="#e1e1e1"/><stop offset="1" stop-color="#f4f4ff"/></linearGradient><linearGradient gradientUnits="userSpaceOnUse" y2="-26.05" x2="-125.19" y1="73.5" x1="-123.97" id="1" gradientTransform="matrix(.49433 0 0 .4778 125.02-12.773)"><stop stop-color="#c52828"/><stop offset="1" stop-color="#ff5454"/></linearGradient></defs><g transform="matrix(.99999 0 0 .99999-38.37 25.882)" enable-background="new"><rect width="48" height="48" x="38.38" y="-25.875" fill="url(#1)" fill-rule="evenodd" rx="2.982"/><path d="m-28.563-21.15c.181.015.332.273.332.273l15.316 23.607c.855 1.29 1.444 2.16-.307 2.047-14.86.667-11.849-15.168-25.381 2.402 0 0-1.713 1.678-.811-.246l10.518-27.74c.104-.275.223-.353.332-.344" fill="url(#0)" transform="matrix(1.15278.11429-.11429 1.15278 92.9 9.679)"/></g></svg>