<svg width="128" height="128" fill="none" xmlns="http://www.w3.org/2000/svg"><rect width="128" height="128" rx="16" fill="#000"/><path d="M89.125 25.768c-3.871.768-11.973 2.064-13.455 2.232h-.072c-.788-.168-2.557-.792-3.728-1.2-.597-.216-1.171-.408-1.72-.6-2.964-1.008-5.163-1.176-5.952-1.2h-.382c-.788 0-2.987.192-5.95 1.2-.575.192-1.148.408-1.722.6-1.194.408-2.94 1.032-3.728 1.2h-.072c-1.481-.168-6.452-1.08-10.443-1.848l-2.94-.576-1.888 2.328C24 44.08 24 47.559 24 49.024c0 4.703 2.318 7.031 3.728 8.4l.072.071.573.576 8.987 9.744.167.168.143.144-.071.168c-.956 2.328-2.94 7.152-.263 12.24 1.673 3.216 4.35 5.831 7.122 7.032l.19.071v.216s-.023.192-.023.288c-.048 2.088 1.004 4.104 2.844 5.448.908.672 9.392 7.416 10.229 8.136l.31.288c1.339 1.224 3.37 3.096 6.07 3.096 2.702 0 4.733-1.872 6.071-3.096l.311-.288c.813-.72 9.32-7.464 10.229-8.136 1.816-1.32 2.892-3.36 2.82-5.424v-.48l.167-.071c2.773-1.2 5.45-3.84 7.122-7.032 2.677-5.112.693-9.936-.263-12.264l-.071-.168.143-.144.12-.12.047-.072 8.963-9.744c.19-.192.358-.384.549-.552l.096-.096c1.386-1.392 3.728-3.696 3.728-8.4 0-1.488 0-4.943-13.097-21.12l-1.768-2.135zm-11.28 64.03c-.622.456-9.703 7.632-10.611 8.448l-.359.312c-.908.84-2.007 1.872-2.892 1.872s-2.007-1.032-2.891-1.848l-.359-.336c-.908-.816-9.966-7.992-10.611-8.447-.526-.385-1.028-1.08-.837-1.728l.048-.144.144-.049c8.054-2.88 12.212-6.047 14.315-8.207l.215-.216.215.216c2.08 2.16 6.262 5.328 14.316 8.207l.143.049.048.144c.168.624-.31 1.343-.837 1.728zm21.461-40.775c0 2.736-1.075 3.816-2.318 5.064-.263.24-.502.504-.765.792l-5.21 5.664c-1.768 1.92-3.37 3.672-3.776 4.08a3 3 0 0 0-.239.264l-.047.048c-.933.96-2.08 2.136-1.22 4.224l.192.456c1.051 2.496 2.342 5.592.669 8.76-1.554 2.952-4.23 5.207-6.262 5.256h-.071c-5.88-2.16-12.428-5.64-13.91-8.568v-.096l-.023-5.88 9.01-2.592-1.315-14.76a3.436 3.436 0 0 1 2.725-3.696l9.894-1.872-2.82-4.08-14.961 2.928 1.625 18.096-6.047 1.728h-.047l-6.764-1.776v-.24l1.625-17.807-14.96-2.928-2.82 4.08 9.87 1.871a3.436 3.436 0 0 1 2.724 3.696l-1.338 14.808 9.034 2.352v6.168c-1.506 2.904-8.054 6.384-13.91 8.544h-.095c-2.056-.025-4.732-2.28-6.286-5.232-1.673-3.168-.382-6.288.67-8.76l.19-.456c.861-2.064-.286-3.264-1.218-4.224l-.048-.048s-.167-.192-.263-.264l-8.986-9.744c-.263-.288-.526-.528-.765-.792-1.242-1.248-2.318-2.328-2.318-5.064 0-3.264 11.543-17.543 12.045-18.143l.12-.144.215.048c1.027.192 10.133 1.968 11.376 1.968 1.028 0 3.083-.72 5.282-1.488l.095-.048c.526-.192 1.052-.36 1.577-.552 2.486-.84 4.255-.936 4.565-.96h.096c.334 0 2.08.096 4.589.96.55.192 1.123.384 1.672.576 2.175.768 4.23 1.488 5.282 1.488 1.243 0 10.325-1.752 11.376-1.968l.215-.048.12.144c.502.6 12.045 14.88 12.045 18.143z" fill="#fff"/><g clip-path="url(#a)"><path d="M56 104.4c0-2.24 0-3.36.44-4.216a4 4 0 0 1 1.762-1.748C59.064 98 60.194 98 62.452 98h49.096c2.258 0 3.388 0 4.25.436a4 4 0 0 1 1.762 1.748c.44.856.44 1.976.44 4.216v7.2c0 2.24 0 3.36-.44 4.216a4 4 0 0 1-1.762 1.748c-.862.436-1.992.436-4.25.436H62.452c-2.258 0-3.388 0-4.25-.436a4 4 0 0 1-1.762-1.748C56 114.96 56 113.84 56 111.6z" fill="#e4e4e5"/><path d="M60.033 112.25v-8.807h1.913l3.55 5.084h.044v-5.084h2.252v8.807h-1.895l-3.57-5.139h-.042v5.139zm9.358 0v-8.807h2.259v8.807zm7.999.159c-2.738 0-4.387-1.679-4.387-4.578v-.006c0-2.856 1.655-4.541 4.332-4.541 2.178 0 3.747 1.269 3.98 2.978l.013.074h-2.233l-.019-.061c-.234-.714-.867-1.136-1.735-1.136-1.28 0-2.037.953-2.037 2.662v.006c0 1.745.837 2.746 2.135 2.746 1.022 0 1.723-.549 1.797-1.434l.006-.11h-1.778v-1.587h3.957v1.105c0 2.411-1.502 3.882-4.03 3.882m5.401-.159v-8.807h2.259v3.46h3.538v-3.46h2.252v8.807h-2.252v-3.546H85.05v3.546zm11.716 0v-7.007h-2.45v-1.8h7.15v1.8H96.76v7.007zm5.907 0v-8.807h2.258v7.006h3.673v1.801zm8.269 0v-3.027l-3.058-5.78h2.4l1.766 3.662h.043l1.766-3.662H114l-3.058 5.78v3.027z" fill="#000"/></g><defs><clipPath id="a"><rect x="56" y="98" width="62" height="20" rx="2" fill="#fff"/></clipPath></defs></svg>