<svg xmlns="http://www.w3.org/2000/svg" xmlns:xlink="http://www.w3.org/1999/xlink" style="display:inline;enable-background:new" version="1.0" height="128" width="128"><defs><radialGradient r="225" fy="-1136.126" fx="58.954" cy="-1136.126" cx="58.954" gradientTransform="matrix(.27964 0 0 .19167 14.087 422.59)" gradientUnits="userSpaceOnUse" id="c" xlink:href="#a"/><radialGradient r="225" fy="-173.679" fx="312.747" cy="-173.679" cx="312.747" gradientTransform="matrix(.60444 0 0 .3562 -109.038 345.863)" gradientUnits="userSpaceOnUse" id="d" xlink:href="#b"/><linearGradient id="a"><stop style="stop-color:#62a0ea;stop-opacity:1" offset="0"/><stop style="stop-color:#1a5fb4;stop-opacity:1" offset="1"/></linearGradient><linearGradient id="b"><stop style="stop-color:#ed333b;stop-opacity:1" offset="0"/><stop style="stop-color:#1a5fb4;stop-opacity:0" offset="1"/></linearGradient></defs><g style="display:inline"><path d="M8 200v88h8v-8h8v8h80v-8h8v8h8v-88h-8v8h-8v-8H24v8h-8v-8zm8 16h8v8h-8zm88 0h8v8h-8zm-88 16h8v8h-8zm88 0h8v8h-8zm-88 16h8v8h-8zm88 0h8v8h-8zm-88 16h8v8h-8zm88 0h8v8h-8z" style="display:inline;opacity:1;vector-effect:none;fill:url(#c);fill-opacity:1;stroke:none;stroke-width:.33206606;stroke-linecap:butt;stroke-linejoin:bevel;stroke-miterlimit:4;stroke-dasharray:.33206605,.66413209;stroke-dashoffset:0;stroke-opacity:.94881891;marker:none;marker-start:none;marker-mid:none;marker-end:none;paint-order:normal;enable-background:new" transform="translate(0 -172)"/><path d="M8 200v88h8v-8h8v8h80v-8h8v8h8v-88h-8v8h-8v-8H24v8h-8v-8zm8 16h8v8h-8zm88 0h8v8h-8zm-88 16h8v8h-8zm88 0h8v8h-8zm-88 16h8v8h-8zm88 0h8v8h-8zm-88 16h8v8h-8zm88 0h8v8h-8z" style="display:inline;opacity:1;vector-effect:none;fill:url(#d);fill-opacity:1;stroke:none;stroke-width:.33206606;stroke-linecap:butt;stroke-linejoin:bevel;stroke-miterlimit:4;stroke-dasharray:.33206605,.66413209;stroke-dashoffset:0;stroke-opacity:.94881891;marker:none;marker-start:none;marker-mid:none;marker-end:none;paint-order:normal;enable-background:new" transform="translate(0 -172)"/><path d="M64 218a20 20 0 0 0-20 20 20 20 0 0 0 20 20 20 20 0 0 0 20-20 20 20 0 0 0-20-20zm-7.906 10h1.812.188c.35-.003.695.077 1 .25l14 8c.621.344.937 1.047.937 1.75 0 .703-.316 1.406-.937 1.75l-14 8a2 2 0 0 1-1 .25h-.188-1.812z" style="display:inline;opacity:.15;vector-effect:none;fill:#000;fill-opacity:1;stroke:none;stroke-width:.33206606;stroke-linecap:butt;stroke-linejoin:bevel;stroke-miterlimit:4;stroke-dasharray:.33206605,.66413209;stroke-dashoffset:0;stroke-opacity:.94881891;marker:none;marker-start:none;marker-mid:none;marker-end:none;paint-order:normal;enable-background:new" transform="translate(0 -172)"/><g style="display:inline;fill:#fff;enable-background:new"><path style="opacity:1;vector-effect:none;fill:#fff;fill-opacity:1;stroke:none;stroke-width:.33206606;stroke-linecap:butt;stroke-linejoin:bevel;stroke-miterlimit:4;stroke-dasharray:.33206605,.66413209;stroke-dashoffset:0;stroke-opacity:.94881891;marker:none;marker-start:none;marker-mid:none;marker-end:none;paint-order:normal" d="M64 208a20 20 0 0 0-20 20 20 20 0 0 0 20 20 20 20 0 0 0 20-20 20 20 0 0 0-20-20zm-7.906 10h1.812.188c.35-.003.695.077 1 .25l14 8c.621.344.937 1.047.937 1.75 0 .703-.316 1.406-.937 1.75l-14 8a2 2 0 0 1-1 .25h-.188-1.812z" transform="translate(0 -164)"/></g><g transform="translate(0 -162)" style="display:inline;opacity:.15;fill:#000;enable-background:new"><rect style="display:inline;opacity:1;vector-effect:none;fill:#000;fill-opacity:1;stroke:none;stroke-width:.33206606;stroke-linecap:butt;stroke-linejoin:bevel;stroke-miterlimit:4;stroke-dasharray:.33206605,.66413209;stroke-dashoffset:0;stroke-opacity:.94881891;marker:none;marker-start:none;marker-mid:none;marker-end:none;paint-order:normal;enable-background:new" width="64" height="4" x="32" y="260" rx="2" ry="2"/><rect style="display:inline;opacity:1;vector-effect:none;fill:#000;fill-opacity:1;stroke:none;stroke-width:.24904953;stroke-linecap:butt;stroke-linejoin:bevel;stroke-miterlimit:4;stroke-dasharray:.24904954,.49809907;stroke-dashoffset:0;stroke-opacity:.94881891;marker:none;marker-start:none;marker-mid:none;marker-end:none;paint-order:normal;enable-background:new" width="12" height="12" x="40" y="256" rx="6" ry="6"/></g><g transform="translate(0 -164)" style="display:inline;enable-background:new"><rect style="opacity:1;vector-effect:none;fill:#fff;fill-opacity:1;stroke:none;stroke-width:.33206606;stroke-linecap:butt;stroke-linejoin:bevel;stroke-miterlimit:4;stroke-dasharray:.33206605,.66413209;stroke-dashoffset:0;stroke-opacity:.94881891;marker:none;marker-start:none;marker-mid:none;marker-end:none;paint-order:normal" width="64" height="4" x="32" y="260" rx="2" ry="2"/><rect style="display:inline;opacity:1;vector-effect:none;fill:#fff;fill-opacity:1;stroke:none;stroke-width:.24904953;stroke-linecap:butt;stroke-linejoin:bevel;stroke-miterlimit:4;stroke-dasharray:.24904954,.49809907;stroke-dashoffset:0;stroke-opacity:.94881891;marker:none;marker-start:none;marker-mid:none;marker-end:none;paint-order:normal;enable-background:new" width="12" height="12" x="40" y="256" rx="6" ry="6"/></g><path d="M16 213v3h8v-3zm88 0v3h8v-3zm-88 16v3h8v-3zm88 0v3h8v-3zm-88 16v3h8v-3zm88 0v3h8v-3zm-88 16v3h8v-3zm88 0v3h8v-3zm-88 16v3h8v-3zm88 0v3h8v-3zm-96 8v3h8v-3zm16 0v3h80v-3zm88 0v3h8v-3z" style="display:inline;opacity:.25;vector-effect:none;fill:#000;fill-opacity:1;stroke:none;stroke-width:.33206606;stroke-linecap:butt;stroke-linejoin:bevel;stroke-miterlimit:4;stroke-dasharray:.33206605,.66413209;stroke-dashoffset:0;stroke-opacity:.94881891;marker:none;marker-start:none;marker-mid:none;marker-end:none;paint-order:normal;enable-background:new" transform="translate(0 -172)"/></g></svg>