<svg xmlns="http://www.w3.org/2000/svg" width="400" height="91" xmlns:v="https://vecta.io/nano"><path d="M311.93 8.75c-2.884 4.813-8.596 13.91-12.694 20.216s-8.504 13.843-9.789 16.75S286.893 51 286.628 51c-1.001 0-6.765-16.429-8.699-24.793C274.495 11.361 272.832 9 265.803 9c-4.252 0-6.097 2.41-7.302 9.535-.369 2.181-2.882 14.424-5.586 27.208s-4.936 24.484-4.962 26c-.071 4.231-4.383-4.611-7.034-14.424-3.856-14.277-8.972-31.778-10.177-34.815-.654-1.648-1.062-5.559-.906-8.691.668-13.489-8.825-12.492-13.389 1.406-2.31 7.033-7.578 17.692-15.955 32.281l-11.05 19.33c-3.947 6.954-4.19 7.184-4.74 4.5-.89-4.348-3.878-5.701-8.41-3.808-3.796 1.587-35.086 6.017-36.005 5.098-.281-.281-.011-3.385.601-6.897S142 57.963 142 56.285c0-3.61 1.527-4.236 10.5-4.302 18.124-.135 25.5-2.719 25.5-8.935 0-6.464-2.31-7.908-8.919-5.577-2.293.81-8.946 1.78-14.783 2.158l-10.614.686.645-2.408c.354-1.324.65-5.151.657-8.504l.014-6.097 11.25-.612c25.901-1.41 36.319-5.961 32.555-14.222-1.662-3.648-5.118-4.087-12.773-1.621-7.996 2.575-22.787 3.75-29.001 2.303-10.552-2.456-13.492 2.109-14.393 22.346-.343 7.7-1.875 21.489-3.403 30.643l-2.78 16.644-13.694-12.027-13.693-12.027 3.775-2.734C126.174 35.098 117.369 7.95 88.5 7.773c-12.834-.079-27.763 5.442-29.098 10.761l-.618 2.462-1.8-2.289C50.563 10.544 11.23 5.544 5.11 12.112c-2.505 2.689-2.752 7.521-.51 9.998 1.462 1.616 1.465 2.612.034 11.579-8.552 53.595-6.694 57.506 20.822 43.839 32.618-16.202 45.442-33.857 36.613-50.405-.698-1.306-.33-1.642 1.885-1.722 3.674-.132 3.933 6.788 1.082 28.887-2.915 22.601-2.785 27.117.887 30.789 5.661 5.661 12.15 2.242 10.229-5.389-1.546-6.139-1.452-11.774.44-26.449.876-6.792 1.438-16.81 1.25-22.269-.386-11.195-1.332-9.962 8.806-11.487C95.041 18.22 105 24.241 105 30.578c0 5.352-12.137 15.123-22.482 18.1-6.997 2.013-5.458 11.534 1.962 12.144 3.482.287 5.29 1.649 16.256 12.249 15.357 14.844 20.997 18.038 25.736 14.573 1.516-1.109 2.301-1.124 4.301-.087s3.31 1.013 7.154-.128c4.516-1.341 34.705-6.398 38.323-6.419 1.031-.006 1.75.74 1.75 1.816 0 2.778 4.35 6.289 7.917 6.391 4.108.117 7.601-3.246 12.611-12.141 3.606-6.401 4.163-6.929 7.925-7.501 2.226-.338 8.207-1.78 13.292-3.204 9.656-2.704 12.247-2.631 12.267.348.017 2.457 6.488 17.071 8.586 19.389 2.216 2.449 4.892 2.402 7.425-.131 1.576-1.576 2.445-1.797 3.934-1 5.675 3.037 9.048-1.515 9.027-12.182-.016-8.206 4.893-40.795 6.145-40.795.357 0 .964 1.688 1.35 3.75C271.112 49.825 281.249 69 286.058 69c2.135 0 7.31-7.293 15.871-22.37 5.187-9.132 9.577-16.457 9.758-16.276s-.346 6.362-1.17 13.737c-3.465 31.022-1.44 45.985 6.327 46.729 3.557.341 7.156-1.965 7.156-4.586 0-1.108.795-1.308 3.316-.835 5.764 1.082 7.84-2.301 8.342-13.594.228-5.118 1.608-16.666 3.068-25.663l2.653-16.357 2.334 8.79c1.283 4.835 4.303 12.949 6.71 18.031 7.869 16.611 11.502 15.88 22.897-4.606 10.096-18.151 13.934-24.08 13.27-20.5-5.85 31.511-3.866 58.512 4.36 59.322 6.574.646 10.641-7.186 5.928-11.417-2.858-2.566-1.348-49.926 2.189-68.639 1.166-6.167 1.119-6.903-.552-8.75C396.786.106 391-.867 391 .752c0 .413-5.259 9.075-11.686 19.25S366.175 41.425 364.399 45l-3.23 6.5-2.134-4.948c-2.881-6.682-6.652-18.785-8.042-25.812-3.058-15.466-15.453-16.582-17.956-1.617-.495 2.957-2.99 15.052-5.546 26.877s-5.038 24.2-5.515 27.5c-.585 4.037-.728-1.033-.437-15.5.531-26.472 1.838-44.634 3.55-49.37 1.203-3.326 1.124-3.774-1.07-6.11-4.253-4.527-6.265-3.49-12.089 6.23M41.586 24.126c16.37 4.122 13.505 24.669-4.731 33.93C31.247 60.904 14.622 68 13.557 68c-1.779 0 2.089-37.027 4.466-42.75 1.087-2.618 14.996-3.281 23.563-1.124m183.638 17.98l2.447 8.606-8.348 2.644c-10.595 3.356-10.553 3.361-8.513-1.106 3.942-8.634 10.63-20.205 11.273-19.505.382.415 1.795 4.628 3.141 9.361" fill-rule="evenodd"/></svg>