<svg height="48pt" viewBox="0 0 48 48" width="48pt" xmlns="http://www.w3.org/2000/svg" xmlns:xlink="http://www.w3.org/1999/xlink"><linearGradient id="a" gradientTransform="matrix(48 0 0 46.985 .495 .559)" gradientUnits="userSpaceOnUse" x1=".031183" x2=".95838" y1=".108666" y2=".975195"><stop offset="0" stop-color="#c751fb"/><stop offset=".975" stop-color="#6d44de"/></linearGradient><path d="m24 18.7c-1.2 0-6.936 4.47-7.918 4.47-1.056 0-7.699-2.567-8.462-2.055-.428.923 6.508 8.185 8.396 8.185 1.853 0 7.347-3.866 7.984-3.866s6.131 3.866 7.984 3.866c1.887 0 8.823-7.263 8.396-8.185-.763-.52-7.406 2.055-8.462 2.055-.982 0-6.718-4.47-7.918-4.47zm-1.144 24.572c1.197.099 2.09 1.135 1.991 2.312-.098 1.176-1.154 2.051-2.358 1.952-6.028-.492-11.654-3.205-15.738-7.594-4.072-4.389-6.31-10.131-6.255-16.067.057-6.235 2.643-12.201 7.179-16.578 4.545-4.367 10.677-6.793 17.037-6.737s12.446 2.592 16.91 7.038c4.454 4.456 6.929 10.468 6.872 16.703-.011 1.18-.997 2.13-2.202 2.119-1.204-.01-2.173-.977-2.162-2.158.047-5.101-1.98-10.018-5.623-13.665-3.654-3.637-8.631-5.713-13.835-5.759-5.203-.046-10.218 1.941-13.938 5.513-3.71 3.582-5.828 8.462-5.875 13.563-.045 4.855 1.778 9.556 5.116 13.147 3.337 3.591 7.943 5.803 12.881 6.211zm18.134-10.078c.558-1.04 1.856-1.431 2.896-.873 1.039.559 1.43 1.856.872 2.896-2.382 4.428-6.126 7.988-10.67 10.139-1.067.51-2.345.057-2.851-1.01-.507-1.067-.052-2.347 1.015-2.857 3.727-1.763 6.78-4.666 8.738-8.295z" fill="url(#a)" fill-rule="evenodd"/></svg>