<svg xmlns="http://www.w3.org/2000/svg" width="128" height="128" version="1.0"><path style="color:#000;fill:#000;fill-opacity:1;fill-rule:nonzero;stroke:none;stroke-width:.09614712;stroke-linecap:butt;stroke-linejoin:miter;marker:none;marker-start:none;marker-mid:none;marker-end:none;stroke-miterlimit:4;stroke-dasharray:none;stroke-dashoffset:0;stroke-opacity:.5;visibility:visible;display:inline;overflow:visible" d="M0 0h128v128H0z"/><path d="M15.101 10.576v9.805h4.544c1.043 0 1.806-.23 2.29-.69.485-.46.807-1.37.966-2.732h.681v8.445h-.68c-.013-.97-.139-1.68-.378-2.135a2.386 2.386 0 0 0-.993-1.02c-.423-.227-1.052-.34-1.886-.34h-4.544v7.836c0 1.263.08 2.097.24 2.502.122.307.38.57.772.791.54.295 1.104.442 1.693.442h.9v.68H8v-.68h.883c1.03 0 1.778-.3 2.244-.902.295-.392.442-1.337.442-2.833V13.63c0-1.264-.08-2.098-.24-2.502-.122-.307-.373-.57-.753-.791a3.419 3.419 0 0 0-1.693-.442H8v-.68h18.562l.24 5.482h-.644c-.32-1.166-.69-2.021-1.113-2.567a3.655 3.655 0 0 0-1.564-1.186c-.62-.246-1.58-.368-2.88-.368h-5.5zm19.372 6.236v3.79c1.41-2.527 2.858-3.79 4.342-3.79.674 0 1.232.206 1.674.616.441.411.662.887.662 1.426 0 .479-.16.883-.478 1.214a1.53 1.53 0 0 1-1.14.497c-.43 0-.911-.211-1.445-.635-.533-.423-.929-.634-1.187-.634-.22 0-.46.122-.717.368-.552.503-1.122 1.33-1.711 2.483v8.076c0 .933.117 1.638.35 2.116.159.331.441.607.846.828.405.22.987.331 1.748.331v.662h-8.629v-.662c.859 0 1.497-.135 1.914-.405.306-.196.52-.509.644-.938.06-.208.092-.803.092-1.784V23.84c0-1.963-.04-3.13-.12-3.505-.08-.374-.227-.647-.442-.818-.214-.172-.48-.258-.8-.258-.38 0-.81.092-1.288.276l-.184-.662 5.096-2.06h.773zm10.486 6.844c-.012 2.502.595 4.464 1.822 5.887 1.226 1.422 2.667 2.134 4.323 2.134 1.104 0 2.063-.304 2.879-.91.815-.608 1.5-1.647 2.051-3.12l.57.369c-.257 1.68-1.005 3.21-2.244 4.59-1.239 1.38-2.79 2.07-4.654 2.07-2.024 0-3.756-.788-5.197-2.364-1.442-1.576-2.162-3.695-2.162-6.357 0-2.882.739-5.13 2.217-6.742 1.478-1.613 3.333-2.42 5.565-2.42 1.888 0 3.44.623 4.654 1.868s1.821 2.91 1.821 4.995H44.96zm0-1.067h7.8c-.06-1.08-.19-1.84-.386-2.281a3.654 3.654 0 0 0-1.37-1.62c-.607-.392-1.242-.588-1.904-.588-1.018 0-1.93.396-2.732 1.187-.804.79-1.273 1.891-1.408 3.302zm16.705 1.067c-.013 2.502.594 4.464 1.82 5.887 1.227 1.422 2.668 2.134 4.324 2.134 1.104 0 2.064-.304 2.88-.91.815-.608 1.499-1.647 2.05-3.12l.57.369c-.257 1.68-1.005 3.21-2.244 4.59-1.238 1.38-2.79 2.07-4.654 2.07-2.024 0-3.756-.788-5.197-2.364-1.441-1.576-2.162-3.695-2.162-6.357 0-2.882.74-5.13 2.217-6.742 1.478-1.613 3.333-2.42 5.565-2.42 1.889 0 3.44.623 4.654 1.868 1.215 1.245 1.822 2.91 1.822 4.995H61.664zm0-1.067h7.8c-.061-1.08-.19-1.84-.386-2.281a3.654 3.654 0 0 0-1.371-1.62c-.607-.392-1.242-.588-1.904-.588-1.018 0-1.929.396-2.732 1.187-.803.79-1.273 1.891-1.407 3.302zm28.184 5.17c-.454 2.22-1.343 3.927-2.668 5.123-1.325 1.196-2.79 1.794-4.397 1.794-1.913 0-3.581-.804-5.004-2.41-1.422-1.607-2.134-3.778-2.134-6.513 0-2.65.788-4.802 2.364-6.457 1.576-1.656 3.468-2.484 5.676-2.484 1.655 0 3.017.439 4.084 1.316 1.067.876 1.6 1.787 1.6 2.731 0 .467-.15.844-.45 1.132-.301.288-.721.432-1.26.432-.724 0-1.27-.233-1.638-.699-.209-.257-.346-.748-.414-1.472-.067-.723-.316-1.275-.745-1.655-.43-.368-1.024-.552-1.784-.552-1.227 0-2.214.454-2.962 1.361-.994 1.202-1.49 2.79-1.49 4.765 0 2.011.493 3.787 1.48 5.326.988 1.539 2.321 2.309 4.002 2.309 1.202 0 2.28-.411 3.238-1.233.674-.564 1.33-1.588 1.968-3.072l.534.257zM96.526 8c.515 0 .953.181 1.315.543.362.362.543.8.543 1.315 0 .515-.181.957-.543 1.325-.362.368-.8.552-1.315.552-.516 0-.957-.184-1.325-.552a1.806 1.806 0 0 1-.552-1.325c0-.515.181-.953.543-1.315A1.813 1.813 0 0 1 96.526 8zm1.527 8.812v13.54c0 1.055.076 1.757.23 2.107.153.35.38.61.68.782.3.171.85.257 1.647.257v.662h-8.187v-.662c.822 0 1.374-.08 1.656-.239.282-.16.506-.423.671-.791.166-.368.249-1.073.249-2.116v-6.494c0-1.827-.056-3.01-.166-3.55-.086-.393-.22-.666-.405-.82-.184-.152-.435-.229-.754-.229-.343 0-.76.092-1.25.276l-.258-.662 5.077-2.06h.81zm3.77.497h7.93v.68h-.515c-.479 0-.843.117-1.095.35-.251.233-.377.546-.377.938 0 .43.129.939.386 1.527l3.919 9.31 3.937-9.66c.282-.686.423-1.207.423-1.563a.613.613 0 0 0-.147-.423 1.014 1.014 0 0 0-.515-.377c-.209-.068-.632-.101-1.27-.101v-.681H120v.68c-.638.05-1.08.178-1.325.387-.429.368-.815.981-1.159 1.84l-5.979 14.46h-.754l-6.016-14.221c-.27-.663-.527-1.138-.772-1.426a3.049 3.049 0 0 0-.939-.727c-.208-.11-.619-.214-1.232-.312v-.681z" style="fill:#fff"/><path style="color:#000;fill:#fff;fill-opacity:1;fill-rule:nonzero;stroke:none;stroke-width:.09614712;stroke-linecap:butt;stroke-linejoin:miter;marker:none;marker-start:none;marker-mid:none;marker-end:none;stroke-miterlimit:4;stroke-dasharray:none;stroke-dashoffset:0;stroke-opacity:.5;visibility:visible;display:inline;overflow:visible" d="M71.5 44.125C51.004 45.576 31.665 56.878 20.625 76c-9.478 16.416-10.741 35.294-5.25 52H128s-11.765-70.62-20-75.375c-11.473-6.624-24.202-9.37-36.5-8.5z"/><path d="M88 46.875c-21.021-.913-43.752 12.304-57 35.25C22.337 97.13 19.394 113.482 21.5 128H128V71c-9.62-13.614-23.359-22.648-40-24.125z" style="color:#000;fill:#7390ff;fill-opacity:1;fill-rule:nonzero;stroke:none;stroke-width:.22666396;stroke-linecap:butt;stroke-linejoin:miter;marker:none;marker-start:none;marker-mid:none;marker-end:none;stroke-miterlimit:4;stroke-dasharray:none;stroke-dashoffset:0;stroke-opacity:.5;visibility:visible;display:inline;overflow:visible"/></svg>