<?xml version="1.0" encoding="UTF-8" standalone="no"?>
<svg
   xmlns:dc="http://purl.org/dc/elements/1.1/"
   xmlns:cc="http://creativecommons.org/ns#"
   xmlns:rdf="http://www.w3.org/1999/02/22-rdf-syntax-ns#"
   xmlns:svg="http://www.w3.org/2000/svg"
   xmlns="http://www.w3.org/2000/svg"
   xmlns:sodipodi="http://sodipodi.sourceforge.net/DTD/sodipodi-0.dtd"
   xmlns:inkscape="http://www.inkscape.org/namespaces/inkscape"
   xml:space="preserve"
   style="enable-background:new 0 0 160.5 120.4;"
   viewBox="0 0 160.5 120.4"
   y="0px"
   x="0px"
   sodipodi:docname="kdenlive-logo.svg"
   inkscape:version="1.0beta1 (32d4812, 2019-09-19)"
   inkscape:export-ydpi="90"
   inkscape:export-xdpi="90"
   inkscape:export-filename="/home/farid/Gunga/Kdenlive/kdenlive-logo-manual.png"
   id="svg4446"
   version="1.1"><metadata
   id="metadata855">
  <rdf:RDF>
    <cc:Work
       rdf:about="">
      <dc:format>image/svg+xml</dc:format>
      <dc:type
         rdf:resource="http://purl.org/dc/dcmitype/StillImage" />
    </cc:Work>
  </rdf:RDF>
</metadata>
<defs
   id="defs853" />

<style
   id="style833"
   type="text/css">
	.st0{fill:#83B9F5;}
	.st1{fill:#F38577;}
	.st2{fill:#527EB2;}
</style>

<sodipodi:namedview
   inkscape:document-rotation="0"
   units="px"
   showguides="true"
   showgrid="false"
   showborder="true"
   pagecolor="#ffffff"
   inkscape:zoom="1.4"
   inkscape:window-y="23"
   inkscape:window-x="0"
   inkscape:window-width="1600"
   inkscape:window-maximized="0"
   inkscape:window-height="996"
   inkscape:pageshadow="2"
   inkscape:pageopacity="0.0"
   inkscape:guide-bbox="true"
   inkscape:document-units="px"
   inkscape:cy="54.203102"
   inkscape:cx="15.792671"
   inkscape:current-layer="g5995-0-6"
   id="base"
   borderopacity="1.0"
   bordercolor="#666666">
	</sodipodi:namedview>

<g
   inkscape:label="Camada 1"
   inkscape:groupmode="layer"
   transform="translate(0,75.637839)"
   id="layer1">
	<g
   transform="matrix(0.88963843,0,0,0.88963843,1492.3067,1727.8447)"
   id="g5995-0-6">
		<g
   transform="matrix(1.0048356,0,0,1.0048356,-4.816092,7.0112194)"
   id="g5997-6-2">
			<path
   d="m -1598.1,-2004.7 v 7.5 h 10.3 v -7.5 z"
   class="st0"
   inkscape:connector-curvature="0"
   id="path5999-1-9" />

			<path
   d="m -1606.2,-1992.6 v 7.5 h 18.5 v -7.5 z"
   class="st0"
   inkscape:connector-curvature="0"
   id="path6001-5-1" />

			<path
   d="m -1627.9,-1980.5 v 7.5 h 40.1 v -7.5 z"
   class="st0"
   inkscape:connector-curvature="0"
   id="path6003-54-2" />

			<path
   d="m -1650,-1968.5 v 7.5 h 62.2 v -7.5 z"
   class="st0"
   inkscape:connector-curvature="0"
   id="path6005-7-7" />

			<path
   d="m -1664.6,-1956.4 v 7.5 h 76.8 v -7.5 z"
   class="st0"
   inkscape:connector-curvature="0"
   id="path6007-6-09" />

			<path
   d="m -1640.3,-1944.4 v 7.5 h 52.5 v -7.5 z"
   class="st0"
   inkscape:connector-curvature="0"
   id="path6009-5-3" />

			<path
   d="m -1618.9,-1932.3 v 7.5 h 31.2 v -7.5 z"
   class="st0"
   inkscape:connector-curvature="0"
   id="path6011-6-6" />

			<path
   d="m -1627.3,-1920.3 v 7.5 h 39.6 v -7.5 z"
   class="st0"
   inkscape:connector-curvature="0"
   id="path6013-9-0" />

			<path
   d="m -1606.9,-1908.8 v 7.5 h 19.1 v -7.5 z"
   class="st0"
   inkscape:connector-curvature="0"
   id="path6015-3-6" />

		</g>

		<g
   transform="matrix(-3.5139599,0,0,3.5139599,1727.6665,-3255.5496)"
   id="g6017-7-2">
			<path
   d="m 938.1,349.6 h 9.3 l -4.6,7.1 z"
   class="st1"
   sodipodi:nodetypes="cccc"
   inkscape:connector-curvature="0"
   id="path6019-4-61" />

			<path
   d="m 942.2,350.9 v 37.2 h 1.2 v -37.2 z"
   class="st1"
   inkscape:connector-curvature="0"
   id="path6021-5-8" />

		</g>

		<path
   d="m -1567.7,-2007.4 c -1.5,0 -2.8,1.2 -2.8,2.7 v 98.7 c 0,2.2 2.5,3.5 4.3,2.2 l 68,-49.3 c 1.5,-1.1 1.5,-3.3 0,-4.4 l -68,-49.3 c -0.4,-0.4 -0.9,-0.6 -1.5,-0.6 z"
   class="st2"
   sodipodi:nodetypes="cccccccc"
   inkscape:connector-curvature="0"
   id="path6023-2-7" />

	</g>

</g>

</svg>
