<?xml version="1.0" encoding="UTF-8" standalone="no"?>
<!-- Created with Inkscape (http://www.inkscape.org/) -->
<svg height="128" viewBox="0 0 116.002 116" width="128" xmlns="http://www.w3.org/2000/svg" xmlns:xlink="http://www.w3.org/1999/xlink">
  <defs>
    <linearGradient id="linearGradient17026">
      <stop offset="0" stop-color="#eeeeec"/>
      <stop offset="1" stop-color="#eeeeec" stop-opacity="0"/>
    </linearGradient>
    <linearGradient id="lg1">
      <stop offset="0" stop-color="#538bcf"/>
      <stop offset="1" stop-color="#80b3ff"/>
    </linearGradient>
    <radialGradient id="path4248_1_" cx="354.85159" cy="-426" gradientTransform="matrix(1 0 0 -1 -359.20739 -378.98677)" gradientUnits="userSpaceOnUse" r="34.1791" xlink:href="#lg1"/>
    <radialGradient id="path2471_1_" cx="354.85159" cy="-426" gradientTransform="matrix(1 0 0 -1 -359.20739 -376.98677)" gradientUnits="userSpaceOnUse" r="34.1791" xlink:href="#lg1"/>
    <linearGradient id="XMLID_1_" gradientTransform="translate(-68.240592 44.013228)" gradientUnits="userSpaceOnUse" x1="63.4995" x2="63.4995" y1="-79.239304" y2="9.3269">
      <stop offset="0" stop-color="#73a3e7"/>
      <stop offset=".13940001" stop-color="#83b1f5"/>
      <stop offset=".3689" stop-color="#bcd6fc"/>
      <stop offset=".5007" stop-color="#659fee"/>
      <stop offset="1" stop-color="#06f"/>
    </linearGradient>
    <filter id="filter24921" height="1.270084" width="1.060769" x="-.030385" y="-.135042">
      <feGaussianBlur stdDeviation="1.0500405"/>
    </filter>
    <linearGradient id="linearGradient15701" gradientTransform="matrix(.8191781 0 0 .9710425 -396.03623 -654.03675)" gradientUnits="userSpaceOnUse" x1="538.77338" x2="538.77338" xlink:href="#XMLID_1_" y1="793" y2="674"/>
    <linearGradient id="linearGradient15703" gradientTransform="matrix(1.359691 0 0 1.4444257 102.53645 19.214184)" gradientUnits="userSpaceOnUse" x1="-42.0849" x2="-44.471905" y1="51.196358" y2="-23.138243">
      <stop offset="0" stop-color="#b3d9ff"/>
      <stop offset=".48629999" stop-color="#71a8f5"/>
      <stop offset=".79879999" stop-color="#2c72c7"/>
      <stop offset=".98000002" stop-color="#2c72c7"/>
      <stop offset="1" stop-color="#deebff"/>
    </linearGradient>
    <linearGradient id="linearGradient15705" gradientTransform="matrix(.8191781 0 0 .9710425 -396.0362 -654.03675)" gradientUnits="userSpaceOnUse" x1="539.09161" x2="538.77246" xlink:href="#path4248_1_" y1="727.67407" y2="773.32599"/>
    <radialGradient id="radialGradient15707" cx="-41.917629" cy="43.972637" gradientTransform="matrix(1.3594933 .0246314 -.01948475 1.2136481 103.43699 31.015352)" gradientUnits="userSpaceOnUse" r="30.663198" xlink:href="#linearGradient17026"/>
    <linearGradient id="linearGradient15709" gradientTransform="matrix(.8191781 0 0 .9710425 -396.03623 -654.03675)" gradientUnits="userSpaceOnUse" x1="538.77338" x2="538.77338" xlink:href="#XMLID_1_" y1="675.48541" y2="677.06049"/>
    <linearGradient id="linearGradient15711" gradientTransform="matrix(.6838082 0 0 .9980506 124.23097 -222.92666)" gradientUnits="userSpaceOnUse" x1="64.625" x2="64.125" xlink:href="#linearGradient17026" y1="46.1875" y2="110.4375"/>
    <radialGradient id="radialGradient15713" cx="66.936424" cy="45.375" gradientTransform="matrix(0 1.4140919 -.2722038 0 164.08243 43.067168)" gradientUnits="userSpaceOnUse" r="27.201139" xlink:href="#linearGradient17026"/>
    <radialGradient id="radialGradient15715" cx="66.936424" cy="45.375" gradientTransform="matrix(0 1.4222781 -.1032331 0 168.96654 43.97671)" gradientUnits="userSpaceOnUse" r="27.201139" xlink:href="#linearGradient17026"/>
    <radialGradient id="radialGradient15717" cx="66.936424" cy="45.375" gradientTransform="matrix(0 1.4468369 -.2267117 0 190.83283 41.519235)" gradientUnits="userSpaceOnUse" r="27.201139" xlink:href="#linearGradient17026"/>
    <radialGradient id="radialGradient15719" cx="66.936424" cy="45.375" gradientTransform="matrix(0 -1.4509301 -.2267117 0 200.55555 235.95875)" gradientUnits="userSpaceOnUse" r="27.201139" xlink:href="#linearGradient17026"/>
    <radialGradient id="radialGradient15721" cx="66.936424" cy="45.375" gradientTransform="matrix(0 1.4468369 -.2267117 0 182.17077 41.868829)" gradientUnits="userSpaceOnUse" r="27.201139" xlink:href="#linearGradient17026"/>
    <radialGradient id="radialGradient15723" cx="66.936424" cy="45.375" gradientTransform="matrix(0 1.4468369 -.2267117 0 171.56417 41.646152)" gradientUnits="userSpaceOnUse" r="27.201139" xlink:href="#linearGradient17026"/>
    <radialGradient id="radialGradient15725" cx="170.94363" cy="147.01244" gradientTransform="matrix(1 0 0 1.1791305 0 -26.334415)" gradientUnits="userSpaceOnUse" r="27.138639">
      <stop offset="0" stop-color="#a4c0e4"/>
      <stop offset="1" stop-color="#a4c0e4" stop-opacity="0"/>
    </radialGradient>
    <radialGradient id="radialGradient15771" cx="75.834114" cy="99.603683" fx="75.834114" fy="99.603683" gradientTransform="matrix(-.4791633 0 0 .2854772 12.498497 97.62046)" gradientUnits="userSpaceOnUse" r="18.54804" xlink:href="#path4248_1_"/>
    <linearGradient id="linearGradient15773" gradientTransform="translate(-78.434045 23.46121)" gradientUnits="userSpaceOnUse" x1="31.526972" x2="57.669052" xlink:href="#path2471_1_" y1="101.08351" y2="101.08351"/>
    <radialGradient id="radialGradient15775" cx="97.150368" cy="101.54234" fx="97.150368" fy="101.54234" gradientTransform="matrix(-.297189 0 0 .399362 -2.333387 83.412621)" gradientUnits="userSpaceOnUse" r="16.621799" xlink:href="#path2471_1_"/>
    <radialGradient id="radialGradient15777" cx="39.007851" cy="97.855095" fx="39.007851" fy="97.855095" gradientTransform="matrix(.5124752 0 0 .5123381 -57.645199 77.148652)" gradientUnits="userSpaceOnUse" r="8.583216" xlink:href="#path2471_1_"/>
    <linearGradient id="linearGradient15779" gradientTransform="matrix(.9475006 0 0 .897242 -74.826877 34.566942)" gradientUnits="userSpaceOnUse" x1="20.515255" x2="42.421417" xlink:href="#linearGradient17026" y1="101.36144" y2="101.36144"/>
    <radialGradient id="radialGradient15781" cx="75.834114" cy="99.603683" fx="75.834114" fy="99.603683" gradientTransform="matrix(.4791633 0 0 .2854772 -59.376838 97.390448)" gradientUnits="userSpaceOnUse" r="18.54804" xlink:href="#path4248_1_"/>
    <linearGradient id="linearGradient15783" gradientTransform="matrix(-1 0 0 1 31.555704 23.231198)" gradientUnits="userSpaceOnUse" x1="31.526972" x2="57.669052" xlink:href="#path2471_1_" y1="101.08351" y2="101.08351"/>
    <radialGradient id="radialGradient15785" cx="97.150368" cy="101.54234" fx="97.150368" fy="101.54234" gradientTransform="matrix(.297189 0 0 .399362 -44.544955 83.182609)" gradientUnits="userSpaceOnUse" r="16.621799" xlink:href="#path2471_1_"/>
    <radialGradient id="radialGradient15787" cx="39.007851" cy="97.855095" fx="39.007851" fy="97.855095" gradientTransform="matrix(-.5124752 0 0 .5123381 10.766858 76.91864)" gradientUnits="userSpaceOnUse" r="8.583216" xlink:href="#path2471_1_"/>
    <linearGradient id="linearGradient15789" gradientTransform="matrix(-.9475006 0 0 .897242 27.948536 34.33693)" gradientUnits="userSpaceOnUse" x1="20.515255" x2="42.421417" xlink:href="#linearGradient17026" y1="101.36144" y2="101.36144"/>
    <linearGradient id="linearGradient15851" gradientTransform="matrix(.860241 0 0 .9668383 81.335529 49.240644)" gradientUnits="userSpaceOnUse" x1="-42.392754" x2="-42.571793" y1="1.962616" y2="69.36438">
      <stop offset="0" stop-color="#73a3e7"/>
      <stop offset=".25782886" stop-color="#83b1f5"/>
      <stop offset=".45412228" stop-color="#bcd6fc"/>
      <stop offset=".72798526" stop-color="#659fee"/>
      <stop offset="1" stop-color="#06f"/>
    </linearGradient>
    <linearGradient id="linearGradient8450" gradientUnits="userSpaceOnUse" x1="48.34449" x2="48.46307" y1="33.853542" y2="29.041655">
      <stop offset="0" stop-color="#6193cf"/>
      <stop offset="1" stop-color="#6193cf" stop-opacity="0"/>
    </linearGradient>
    <linearGradient id="linearGradient9041" gradientTransform="matrix(1.0484347 0 0 .5760374 -370.58789 -134.52063)" gradientUnits="userSpaceOnUse" x1="20.515255" x2="42.421417" xlink:href="#linearGradient17026" y1="101.36144" y2="101.36144"/>
    <linearGradient id="linearGradient9049" gradientTransform="matrix(1.1816933 0 0 .642009 -402.5702 -141.70091)" gradientUnits="userSpaceOnUse" x1="31.526972" x2="57.669052" xlink:href="#path2471_1_" y1="101.08351" y2="101.08351"/>
    <radialGradient id="radialGradient9863" cx="59.225082" cy="87.327621" gradientTransform="matrix(1 0 0 .3182848 0 60.696301)" gradientUnits="userSpaceOnUse" r="12.36786">
      <stop offset="0" stop-color="#89baf8"/>
      <stop offset="1" stop-color="#89baf8" stop-opacity="0"/>
    </radialGradient>
    <radialGradient id="radialGradient9055" cx="58.907265" cy="106.93835" gradientTransform="matrix(1 0 0 .1538462 0 90.486293)" gradientUnits="userSpaceOnUse" r="58.907265">
      <stop offset="0" stop-color="#fff"/>
      <stop offset="1" stop-color="#fff" stop-opacity="0"/>
    </radialGradient>
    <mask id="mask9051" maskUnits="userSpaceOnUse">
      <path d="m117.81453 106.93835a58.907265 9.0626564 0 1 1 -117.81453 0 58.907265 9.0626564 0 1 1 117.81453 0z" fill="url(#radialGradient9055)" transform="matrix(.2141397 0 0 .4116542 46.258412 45.218889)"/>
    </mask>
    <mask id="mask9057" maskUnits="userSpaceOnUse">
      <path d="m117.81453 106.93835a58.907265 9.0626564 0 1 1 -117.81453 0 58.907265 9.0626564 0 1 1 117.81453 0z" fill="url(#radialGradient9055)"/>
    </mask>
    <mask id="mask9063" maskUnits="userSpaceOnUse">
      <path d="m117.81453 106.93835a58.907265 9.0626564 0 1 1 -117.81453 0 58.907265 9.0626564 0 1 1 117.81453 0z" fill="url(#radialGradient9055)"/>
    </mask>
    <mask id="mask9069" maskUnits="userSpaceOnUse">
      <path d="m117.81453 106.93835a58.907265 9.0626564 0 1 1 -117.81453 0 58.907265 9.0626564 0 1 1 117.81453 0z" fill="url(#radialGradient9055)"/>
    </mask>
    <mask id="mask9075" maskUnits="userSpaceOnUse">
      <path d="m117.81453 106.93835a58.907265 9.0626564 0 1 1 -117.81453 0 58.907265 9.0626564 0 1 1 117.81453 0z" fill="url(#radialGradient9055)" transform="matrix(.8882549 0 0 1.5576106 -6.558775 -131.88308)"/>
    </mask>
    <mask id="mask9081" maskUnits="userSpaceOnUse">
      <path d="m117.81453 106.93835a58.907265 9.0626564 0 1 1 -117.81453 0 58.907265 9.0626564 0 1 1 117.81453 0z" fill="url(#radialGradient9055)"/>
    </mask>
    <mask id="mask9087" maskUnits="userSpaceOnUse">
      <path d="m117.81453 106.93835a58.907265 9.0626564 0 1 1 -117.81453 0 58.907265 9.0626564 0 1 1 117.81453 0z" fill="url(#radialGradient9055)"/>
    </mask>
    <mask id="mask9093" maskUnits="userSpaceOnUse">
      <path d="m117.81453 106.93835a58.907265 9.0626564 0 1 1 -117.81453 0 58.907265 9.0626564 0 1 1 117.81453 0z" fill="url(#radialGradient9055)"/>
    </mask>
    <mask id="mask9099" maskUnits="userSpaceOnUse">
      <path d="m117.81453 106.93835a58.907265 9.0626564 0 1 1 -117.81453 0 58.907265 9.0626564 0 1 1 117.81453 0z" fill="url(#radialGradient9055)"/>
    </mask>
    <mask id="mask9105" maskUnits="userSpaceOnUse">
      <path d="m117.81453 106.93835a58.907265 9.0626564 0 1 1 -117.81453 0 58.907265 9.0626564 0 1 1 117.81453 0z" fill="url(#radialGradient9055)" transform="matrix(.5155587 0 0 .5888814 16.118085 -31.213167)"/>
    </mask>
    <mask id="mask9111" maskUnits="userSpaceOnUse">
      <path d="m117.81453 106.93835a58.907265 9.0626564 0 1 1 -117.81453 0 58.907265 9.0626564 0 1 1 117.81453 0z" fill="url(#radialGradient9055)" transform="matrix(.2141397 0 0 .4116542 46.258412 45.218889)"/>
    </mask>
  </defs>
  <g fill-rule="evenodd">
    <path d="m71.079656 89.034691a12.36786 3.936502 0 1 1 -24.73572 0 12.36786 3.936502 0 1 1 24.73572 0z" fill="#0057ae" mask="url(#mask9111)" transform="matrix(4.6698482 0 0 2.4292231 -216.01976 -109.84677)"/>
    <path d="m61.848022 30.445681a14.102623 1.4058183 0 1 1 -28.205246 0 14.102623 1.4058183 0 1 1 28.205246 0z" fill="url(#linearGradient8450)" mask="url(#mask9105)" transform="matrix(1.9396435 0 0 1.6981348 -31.263339 53.004165)"/>
    <path d="m58.965599 99.918358c-23.60909 0-42.767238 2.314972-42.767238 5.160062 0 2.84511 19.158148 5.14758 42.767238 5.14758 23.609061 0 42.767191-2.30247 42.767191-5.14758 0-2.84509-19.15813-5.160062-42.767191-5.160062zm.657174.774642c21.752712 0 39.408168 1.78223 39.408168 3.97312 0 2.19088-17.655456 3.96064-39.408168 3.96064-21.752661 0-39.408167-1.76976-39.408167-3.96064 0-2.19089 17.655506-3.97312 39.408167-3.97312z" fill="#6193cf" mask="url(#mask9099)" opacity=".4"/>
    <path d="m59.474402 99.918358c-23.799787 0-43.112721 2.224232-43.112721 4.957842 0 2.7336 19.312934 4.94587 43.112721 4.94587 23.799831 0 43.112738-2.21227 43.112738-4.94587 0-2.73361-19.312907-4.957842-43.112738-4.957842zm.662506.744282c21.928467 0 39.726546 1.7124 39.726546 3.81742 0 2.10503-17.798079 3.80542-39.726546 3.80542-21.92841 0-39.726534-1.70039-39.726534-3.80542 0-2.10502 17.798124-3.81742 39.726534-3.81742z" fill="url(#linearGradient9049)" mask="url(#mask9093)" opacity=".4"/>
    <path d="m60.659571 102.34923c-12.136255 0-21.984499.94841-21.984499 2.11401 0 1.16561 9.848244 2.10891 21.984499 2.10891 12.136231 0 21.984467-.9433 21.984467-2.10891 0-1.1656-9.848236-2.11401-21.984467-2.11401zm.337821.31735c11.181985 0 20.257756.73017 20.257756 1.62774 0 .89758-9.075771 1.62263-20.257756 1.62263-11.18196 0-20.257767-.72505-20.257767-1.62263 0-.89757 9.075807-1.62774 20.257767-1.62774z" fill="#6193cf" mask="url(#mask9087)" opacity=".6"/>
    <path d="m60.804654 102.34923c-11.65564 0-21.113895.91124-21.113895 2.03117s9.458255 2.02626 21.113895 2.02626c11.655656 0 21.113889-.90633 21.113889-2.02626s-9.458233-2.03117-21.113889-2.03117zm.324457.30492c10.739182 0 19.455548.70154 19.455548 1.56395s-8.716366 1.55904-19.455548 1.55904c-10.739158 0-19.455553-.69663-19.455553-1.55904s8.716395-1.56395 19.455553-1.56395z" fill="#6193cf" mask="url(#mask9081)" opacity=".4"/>
    <path d="m61.848022 30.445681a14.102623 1.4058183 0 1 1 -28.205246 0 14.102623 1.4058183 0 1 1 28.205246 0z" fill="url(#linearGradient8450)" mask="url(#mask9075)" transform="matrix(1.125803 0 0 .642009 7.383888 84.670126)"/>
    <path d="m58.252719 96.76961c-30.800111 0-55.7935669 4.12573-55.7935669 9.19617 0 5.07051 24.9934559 9.17396 55.7935669 9.17396 30.800075 0 55.793511-4.10345 55.793511-9.17396 0-5.07044-24.993436-9.19617-55.793511-9.19617zm.857349 1.380539c28.37829 0 51.411342 3.176281 51.411342 7.080841 0 3.90455-23.033052 7.05858-51.411342 7.05858-28.378238 0-51.4113724-3.15403-51.4113724-7.05858 0-3.90456 23.0331344-7.080841 51.4113724-7.080841z" fill="#6193cf" mask="url(#mask9069)" opacity=".2"/>
    <path d="m58.001011 97.304929c-32.018655 0-58.001011 3.587711-58.001011 7.997031 0 4.40934 25.982356 7.97774 58.001011 7.97774 32.01872 0 58.000989-3.5684 58.000989-7.97774 0-4.40932-25.982269-7.997031-58.000989-7.997031zm.891297 1.200532c29.501122 0 53.445432 2.762119 53.445432 6.157529 0 3.39544-23.94431 6.13818-53.445432 6.13818-29.501053 0-53.4454627-2.74274-53.4454627-6.13818 0-3.39541 23.9444097-6.157529 53.4454627-6.157529z" fill="url(#linearGradient9041)" mask="url(#mask9063)" opacity=".4"/>
    <path d="m58.086027 98.105622c-29.553971 0-53.5362299 3.400628-53.5362299 7.579968 0 4.17937 23.9822589 7.56164 53.5362299 7.56164 29.553933 0 53.536183-3.38227 53.536183-7.56164 0-4.17934-23.98225-7.579968-53.536183-7.579968zm.822656 1.137931c27.230144 0 49.331297 2.618037 49.331297 5.836377 0 3.21833-22.101153 5.81804-49.331297 5.81804-27.230087 0-49.3313338-2.59971-49.3313338-5.81804 0-3.21834 22.1012468-5.836377 49.3313338-5.836377z" fill="#6193cf" mask="url(#mask9057)" opacity=".4"/>
  </g>
  <g transform="matrix(.333692 0 0 .333692 -1562.904 -120.90986)"/>
  <path d="m-634.40434 84.680833v-1.822539z" fill="#fff" fill-opacity=".756881"/>
  <g transform="translate(-783.48731 41.853559)"/>
  <g transform="matrix(.333692 0 0 .333692 -2158.0058 -150.57778)"/>
  <g transform="translate(-729.58859 17.115638)"/>
  <g transform="translate(-234.52723 -1.16982)"/>
  <g transform="translate(-275.17885 -4.718062)"/>
  <g transform="matrix(.333692 0 0 .333692 -1402.6867 -246.77016)"/>
  <path d="m71.079656 89.034691a12.36786 3.936502 0 1 1 -24.73572 0 12.36786 3.936502 0 1 1 24.73572 0z" fill="url(#radialGradient9863)" fill-rule="evenodd" mask="url(#mask9051)" opacity=".8" transform="matrix(4.6698482 0 0 2.4292231 -216.01976 -109.84677)"/>
  <g transform="matrix(.9184021 0 0 .9114436 18.971235 -.407444)">
    <path d="m26.254957.445939c-1.751391 0-3.175939 1.6896126-3.175939 3.7657016v52.9509514c-2.714759 0-19.4563083 0-19.4563083 0-1.2770898 0-2.4239348.900151-2.92281898 2.292625-.00082941.003897-.25394948 1.473083-.25394948 1.473083 0 .979781.31538032 1.908098.88881636 2.612101l41.6920554 51.305999c.594729.73217 1.429471 1.1536 2.287966 1.1536.859311 0 1.692421-.42143 2.287965-1.1536l41.692885-51.305999c.885526-1.090477 1.135383-2.691735.635697-4.085184-.501345-1.39441-1.64819-2.29165-2.923662-2.29165 0 0-16.741536 0-19.456295 0 0-3.51129 0-52.9509558 0-52.9509558-.000829-2.0770596-1.425364-3.7666722-3.176768-3.7666722z" fill="url(#linearGradient15701)"/>
    <path d="m87.006848 58.104507s-16.263957 0-20.250898 0c-.439085 0-.795419-.421433-.795419-.941915v.941915 1.528416h21.043856c.699588 0 1.353287-.692355 1.937369-.302958-.435808-.747703-1.144397-1.225458-1.934908-1.225458z" fill="#fff"/>
    <path d="m23.872792 58.104507c-3.986927 0-20.2508981 0-20.2508981 0-.7905108 0-1.4982707.476782-1.9373557 1.226417.583253-.388408 1.2377811.302972 1.9373557.302972h21.0446851c0-.277726 0-1.251677 0-1.528414v-.941915c.000816.519507-.354702.94094-.793787.94094z" fill="#fff"/>
    <path d="m26.254957 2.3287883c-.876511 0-1.587562.8428658-1.587562 1.8828523v54.8347794c-2.746698 0-21.0446853 0-21.0446853 0-.6364986 0-1.2123821.451536-1.4614095 1.145825-.0851982.236938-.1269679.487469-.1269679.737987 0 .475823.1539986.950656.4439935 1.307027l41.6920692 51.306001c.299812.36997.712682.57875 1.143568.57875s.844572-.20878 1.143568-.57875l41.692899-51.306001c.441532-.545726.564407-1.34975.317841-2.04308-.250673-.694288-.824911-1.145824-1.461423-1.145824 0 0-18.298803 0-21.04387 0 0-3.520031 0-54.8357438 0-54.8357438 0-1.0399865-.711866-1.8828493-1.587561-1.8828493z" fill="#80b3ff" stroke="url(#linearGradient15703)" stroke-width="1.401418"/>
    <path d="m63.312438 60.9283v-56.7166594h-35.995318v56.7166594h-23.6952261l41.6928851 51.30599 41.692069-51.30599z" fill="url(#linearGradient15705)"/>
    <path d="m3.6218966 60.943853h83.3849504l-41.692068 51.290437z" fill="url(#radialGradient15707)" fill-rule="evenodd"/>
    <path d="m26.254957 1.8889073c-.819173 0-1.507272.5233934-1.936527 1.2720652.581622-.3961857 1.218936.2573259 1.936527.2573259h38.119644c.71759 0 1.354103-.6535116 1.93654-.2573259-.429255-.7486718-1.117367-1.2720652-1.93654-1.2720652z" fill="url(#linearGradient15709)"/>
    <g fill-rule="evenodd">
      <g transform="matrix(1.359691 0 0 1.4444257 102.53645 19.214184)">
        <g transform="matrix(1 0 0 .8820237 55.259321 -3.833985)">
          <g transform="matrix(.489289 0 0 -.7001426 -180.73646 118.03617)">
            <rect fill="url(#linearGradient15711)" height="63.999996" opacity=".683206" transform="scale(1 -1)" width="54.277279" x="143.80499" y="-179.01244"/>
            <path d="m144.3334 178.34902v-63.10721h14.8125v63.10721z" fill="url(#radialGradient15713)"/>
            <path d="m161.48965 176.76624v-61.61581h5.59375v61.61581z" fill="url(#radialGradient15715)"/>
            <path d="m174.36465 178.2532v-63.10277h12.34375v63.10277z" fill="url(#radialGradient15717)"/>
            <path d="m184.11465 178.31516v-63.00983h12.3125v63.00983z" fill="url(#radialGradient15719)"/>
            <path d="m165.7084 178.25649v-62.82961h12.34375v62.82961z" fill="url(#radialGradient15721)"/>
            <path d="m155.11465 178.4724v-63.04552h12.34375v63.04552z" fill="url(#radialGradient15723)"/>
          </g>
          <g fill="url(#radialGradient15725)" transform="matrix(.489289 0 0 -.7001426 -182.46636 118.03617)">
            <rect height="63.999996" opacity=".683206" transform="scale(1 -1)" width="54.277279" x="143.80499" y="-179.01244"/>
            <path d="m144.3334 178.34902v-63.10721h14.8125v63.10721z"/>
            <path d="m161.48965 176.76624v-61.61581h5.59375v61.61581z"/>
            <path d="m174.36465 178.2532v-63.10277h12.34375v63.10277z"/>
            <path d="m184.11465 178.31516v-63.00983h12.3125v63.00983z"/>
            <path d="m165.7084 178.25649v-62.82961h12.34375v62.82961z"/>
            <path d="m155.11465 178.4724v-63.04552h12.34375v63.04552z"/>
          </g>
        </g>
        <g transform="matrix(.489289 0 0 -.6175424 -125.47714 100.10326)">
          <rect fill="url(#linearGradient15711)" height="63.999996" opacity=".683206" transform="scale(1 -1)" width="54.277279" x="143.80499" y="-179.01244"/>
          <path d="m144.3334 178.34902v-63.10721h14.8125v63.10721z" fill="url(#radialGradient15713)"/>
          <path d="m161.48965 176.76624v-61.61581h5.59375v61.61581z" fill="url(#radialGradient15715)"/>
          <path d="m174.36465 178.2532v-63.10277h12.34375v63.10277z" fill="url(#radialGradient15717)"/>
          <path d="m184.11465 178.31516v-63.00983h12.3125v63.00983z" fill="url(#radialGradient15719)"/>
          <path d="m165.7084 178.25649v-62.82961h12.34375v62.82961z" fill="url(#radialGradient15721)"/>
          <path d="m155.11465 178.4724v-63.04552h12.34375v63.04552z" fill="url(#radialGradient15723)"/>
        </g>
        <g fill="url(#radialGradient15725)" transform="matrix(.489289 0 0 -.6175424 -127.20704 100.10326)">
          <rect height="63.999996" opacity=".683206" transform="scale(1 -1)" width="54.277279" x="143.80499" y="-179.01244"/>
          <path d="m144.3334 178.34902v-63.10721h14.8125v63.10721z"/>
          <path d="m161.48965 176.76624v-61.61581h5.59375v61.61581z"/>
          <path d="m174.36465 178.2532v-63.10277h12.34375v63.10277z"/>
          <path d="m184.11465 178.31516v-63.00983h12.3125v63.00983z"/>
          <path d="m165.7084 178.25649v-62.82961h12.34375v62.82961z"/>
          <path d="m155.11465 178.4724v-63.04552h12.34375v63.04552z"/>
        </g>
      </g>
      <g transform="matrix(1.359691 0 0 1.4444257 102.26906 11.260791)">
        <g filter="url(#filter24921)" transform="matrix(.4257857 0 0 .6794316 -40.375472 -56.201793)">
          <path d="m-14.950892 130.83163c-3.905763.44474-5.207688.60335-9.764398.47584 0-3.45831-11.11318-10.54747-7.160559-10.54747 3.952628 0 16.924957 6.61334 16.924957 10.07163z" fill="url(#radialGradient15771)"/>
          <path d="m-.41093 131.23659c-13.226912.36348-17.635898.49311-33.067299.38889 0-2.82649-37.634924-8.62052-24.249311-8.62052 13.385655 0 57.31661 5.40513 57.31661 8.23163z" fill="#a4c0e4" fill-opacity=".988235"/>
          <path d="m-20.764991 130.8546c-5.744259.58749-7.65902.79702-14.36066.62857 0-4.56841-16.344313-13.93321-10.531131-13.93321 5.813201 0 24.891791 8.73623 24.891791 13.30464z" fill="url(#linearGradient15773)" opacity=".278626"/>
          <path d="m-23.466574 130.87541c-1.912003.40718-2.549337.55241-4.780002.43566 0-3.16632-5.440275-9.65693-3.505332-9.65693 1.934945 0 8.285334 6.05495 8.285334 9.22127z" fill="#eeeeec" fill-opacity=".988235" opacity=".637405"/>
          <path d="m-26.265592 129.95295c-2.170878.55754-2.894502.75637-5.427185.59652 0-4.33549-6.176859-13.22281-3.979937-13.22281 2.196925 0 9.407122 8.29079 9.407122 12.62629z" fill="url(#radialGradient15775)"/>
          <g fill-opacity=".988235">
            <path d="m-30.813437 130.45138c-3.260216.55177-4.346959.74855-8.150537.59034 0-4.29053-9.276395-13.08567-5.977066-13.08567 3.299344 0 14.127603 8.20481 14.127603 12.49533z" fill="#eeeeec" opacity=".71374"/>
            <path d="m-29.17045 130.20384c-4.856787.39134-6.475715.5309-12.141954.41869 0-3.04313-13.819154-9.28125-8.904096-9.28125 4.915065 0 21.04605 5.81941 21.04605 8.86256z" fill="#eeeeec" opacity=".637405"/>
            <path d="m-33.255956 130.93098c-3.872473.64342-5.163298.87289-9.681173.6884 0-5.00332-11.018456-15.25962-7.099523-15.25962 3.918942 0 16.780696 9.5679 16.780696 14.57122z" fill="#eeeeec" opacity=".637405"/>
            <path d="m-33.255956 131.09989c-3.013274.49853-4.0177.67632-7.533179.53338 0-3.87663-8.573754-11.82334-5.524328-11.82334 3.049433 0 13.057507 7.41333 13.057507 11.28996z" fill="#eeeeec" opacity=".583969"/>
          </g>
          <path d="m-33.255956 131.25048c-1.933069.36935-2.577426.50107-4.832667.39517 0-2.8721-5.500215-8.75962-3.543954-8.75962 1.956265 0 8.376621 5.49235 8.376621 8.36445z" fill="url(#radialGradient15777)" opacity=".740458"/>
          <path d="m-34.632558 130.94786c-4.560787.50607-6.081056.68654-11.401959.54144 0-3.93512-12.976954-12.00174-8.361445-12.00174 4.615522 0 19.763404 7.52518 19.763404 11.4603z" fill="url(#linearGradient15779)" opacity=".530534"/>
          <path d="m-30.058993 130.12299c-3.451046.26996-4.601394.36623-8.627606.28882 0-2.09923-9.819359-6.40243-6.326909-6.40243 3.492457 0 14.954515 4.01437 14.954515 6.11361z" fill="#a4c0e4" fill-opacity=".988235" opacity=".637405"/>
          <path d="m-31.927449 130.60162c3.905763.44474 5.207688.60335 9.764398.47584 0-3.45831 11.11318-10.54747 7.160559-10.54747-3.952628 0-16.924957 6.61334-16.924957 10.07163z" fill="url(#radialGradient15781)"/>
          <path d="m-26.11335 130.62459c5.744259.58749 7.65902.79702 14.36066.62857 0-4.56841 16.344313-13.93321 10.531131-13.93321-5.813201 0-24.891791 8.73623-24.891791 13.30464z" fill="url(#linearGradient15783)" opacity=".278626"/>
          <path d="m-23.411767 130.6454c1.912003.40718 2.549337.55241 4.780002.43566 0-3.16632 5.440275-9.65693 3.505332-9.65693-1.934945 0-8.285334 6.05495-8.285334 9.22127z" fill="#eeeeec" fill-opacity=".988235" opacity=".637405"/>
          <path d="m-20.612749 129.72294c2.170878.55754 2.894502.75637 5.427185.59652 0-4.33549 6.176859-13.22281 3.979937-13.22281-2.196925 0-9.407122 8.29079-9.407122 12.62629z" fill="url(#radialGradient15785)"/>
          <path d="m-16.064904 130.22137c3.260216.55177 4.346959.74855 8.150537.59034 0-4.29053 9.276395-13.08567 5.977066-13.08567-3.299344 0-14.127603 8.20481-14.127603 12.49533z" fill="#eeeeec" fill-opacity=".988235" opacity=".71374"/>
          <path d="m-17.707891 129.97383c4.856787.39134 6.475715.5309 12.141954.41869 0-3.04313 13.819154-9.28125 8.904096-9.28125-4.915065 0-21.04605 5.81941-21.04605 8.86256z" fill="#eeeeec" fill-opacity=".988235" opacity=".637405"/>
          <path d="m-13.622385 130.70097c3.872473.64342 5.163298.87289 9.681173.6884 0-5.00332 11.018456-15.25962 7.099523-15.25962-3.91894201 0-16.780696 9.5679-16.780696 14.57122z" fill="#eeeeec" fill-opacity=".988235" opacity=".637405"/>
          <path d="m-13.622385 130.86988c3.013274.49853 4.0177.67632 7.533179.53338 0-3.87663 8.573754-11.82334 5.52432799-11.82334-3.04943299 0-13.05750699 7.41333-13.05750699 11.28996z" fill="#eeeeec" fill-opacity=".988235" opacity=".583969"/>
          <path d="m-13.622385 131.02047c1.933069.36935 2.577426.50107 4.832667.39517 0-2.8721 5.500215-8.75962 3.543954-8.75962-1.956265 0-8.376621 5.49235-8.376621 8.36445z" fill="url(#radialGradient15787)" opacity=".740458"/>
          <path d="m-12.245783 130.71785c4.560787.50607 6.081056.68654 11.40195899.54144 0-3.93512 12.97695401-12.00174 8.36144501-12.00174-4.615522 0-19.763404 7.52518-19.763404 11.4603z" fill="url(#linearGradient15789)" opacity=".530534"/>
          <path d="m-16.819348 129.89298c3.451046.26996 4.601394.36623 8.627606.28882 0-2.09923 9.819359-6.40243 6.326909-6.40243-3.492457 0-14.954515 4.01437-14.954515 6.11361z" fill="#a4c0e4" fill-opacity=".988235" opacity=".637405"/>
        </g>
        <g opacity=".5" transform="matrix(.3997331 0 0 .7104981 -40.378838 -59.004324)">
          <path d="m-14.950892 130.83163c-3.905763.44474-5.207688.60335-9.764398.47584 0-3.45831-11.11318-10.54747-7.160559-10.54747 3.952628 0 16.924957 6.61334 16.924957 10.07163z" fill="url(#radialGradient15771)"/>
          <path d="m-.41093 131.23659c-13.226912.36348-17.635898.49311-33.067299.38889 0-2.82649-37.634924-8.62052-24.249311-8.62052 13.385655 0 57.31661 5.40513 57.31661 8.23163z" fill="#a4c0e4" fill-opacity=".988235"/>
          <path d="m-20.764991 130.8546c-5.744259.58749-7.65902.79702-14.36066.62857 0-4.56841-16.344313-13.93321-10.531131-13.93321 5.813201 0 24.891791 8.73623 24.891791 13.30464z" fill="url(#linearGradient15773)" opacity=".278626"/>
          <path d="m-23.466574 130.87541c-1.912003.40718-2.549337.55241-4.780002.43566 0-3.16632-5.440275-9.65693-3.505332-9.65693 1.934945 0 8.285334 6.05495 8.285334 9.22127z" fill="#eeeeec" fill-opacity=".988235" opacity=".637405"/>
          <path d="m-26.265592 129.95295c-2.170878.55754-2.894502.75637-5.427185.59652 0-4.33549-6.176859-13.22281-3.979937-13.22281 2.196925 0 9.407122 8.29079 9.407122 12.62629z" fill="url(#radialGradient15775)"/>
          <g fill-opacity=".988235">
            <path d="m-30.813437 130.45138c-3.260216.55177-4.346959.74855-8.150537.59034 0-4.29053-9.276395-13.08567-5.977066-13.08567 3.299344 0 14.127603 8.20481 14.127603 12.49533z" fill="#eeeeec" opacity=".71374"/>
            <path d="m-29.17045 130.20384c-4.856787.39134-6.475715.5309-12.141954.41869 0-3.04313-13.819154-9.28125-8.904096-9.28125 4.915065 0 21.04605 5.81941 21.04605 8.86256z" fill="#eeeeec" opacity=".637405"/>
            <path d="m-33.255956 130.93098c-3.872473.64342-5.163298.87289-9.681173.6884 0-5.00332-11.018456-15.25962-7.099523-15.25962 3.918942 0 16.780696 9.5679 16.780696 14.57122z" fill="#eeeeec" opacity=".637405"/>
            <path d="m-33.255956 131.09989c-3.013274.49853-4.0177.67632-7.533179.53338 0-3.87663-8.573754-11.82334-5.524328-11.82334 3.049433 0 13.057507 7.41333 13.057507 11.28996z" fill="#eeeeec" opacity=".583969"/>
          </g>
          <path d="m-33.255956 131.25048c-1.933069.36935-2.577426.50107-4.832667.39517 0-2.8721-5.500215-8.75962-3.543954-8.75962 1.956265 0 8.376621 5.49235 8.376621 8.36445z" fill="url(#radialGradient15777)" opacity=".740458"/>
          <path d="m-34.632558 130.94786c-4.560787.50607-6.081056.68654-11.401959.54144 0-3.93512-12.976954-12.00174-8.361445-12.00174 4.615522 0 19.763404 7.52518 19.763404 11.4603z" fill="url(#linearGradient15779)" opacity=".530534"/>
          <path d="m-30.058993 130.12299c-3.451046.26996-4.601394.36623-8.627606.28882 0-2.09923-9.819359-6.40243-6.326909-6.40243 3.492457 0 14.954515 4.01437 14.954515 6.11361z" fill="#a4c0e4" fill-opacity=".988235" opacity=".637405"/>
          <path d="m-31.927449 130.60162c3.905763.44474 5.207688.60335 9.764398.47584 0-3.45831 11.11318-10.54747 7.160559-10.54747-3.952628 0-16.924957 6.61334-16.924957 10.07163z" fill="url(#radialGradient15781)"/>
          <path d="m-26.11335 130.62459c5.744259.58749 7.65902.79702 14.36066.62857 0-4.56841 16.344313-13.93321 10.531131-13.93321-5.813201 0-24.891791 8.73623-24.891791 13.30464z" fill="url(#linearGradient15783)" opacity=".278626"/>
          <path d="m-23.411767 130.6454c1.912003.40718 2.549337.55241 4.780002.43566 0-3.16632 5.440275-9.65693 3.505332-9.65693-1.934945 0-8.285334 6.05495-8.285334 9.22127z" fill="#eeeeec" fill-opacity=".988235" opacity=".637405"/>
          <path d="m-20.612749 129.72294c2.170878.55754 2.894502.75637 5.427185.59652 0-4.33549 6.176859-13.22281 3.979937-13.22281-2.196925 0-9.407122 8.29079-9.407122 12.62629z" fill="url(#radialGradient15785)"/>
          <path d="m-16.064904 130.22137c3.260216.55177 4.346959.74855 8.150537.59034 0-4.29053 9.276395-13.08567 5.977066-13.08567-3.299344 0-14.127603 8.20481-14.127603 12.49533z" fill="#eeeeec" fill-opacity=".988235" opacity=".71374"/>
          <path d="m-17.707891 129.97383c4.856787.39134 6.475715.5309 12.141954.41869 0-3.04313 13.819154-9.28125 8.904096-9.28125-4.915065 0-21.04605 5.81941-21.04605 8.86256z" fill="#eeeeec" fill-opacity=".988235" opacity=".637405"/>
          <path d="m-13.622385 130.70097c3.872473.64342 5.163298.87289 9.681173.6884 0-5.00332 11.018456-15.25962 7.099523-15.25962-3.91894201 0-16.780696 9.5679-16.780696 14.57122z" fill="#eeeeec" fill-opacity=".988235" opacity=".637405"/>
          <path d="m-13.622385 130.86988c3.013274.49853 4.0177.67632 7.533179.53338 0-3.87663 8.573754-11.82334 5.52432799-11.82334-3.04943299 0-13.05750699 7.41333-13.05750699 11.28996z" fill="#eeeeec" fill-opacity=".988235" opacity=".583969"/>
          <path d="m-13.622385 131.02047c1.933069.36935 2.577426.50107 4.832667.39517 0-2.8721 5.500215-8.75962 3.543954-8.75962-1.956265 0-8.376621 5.49235-8.376621 8.36445z" fill="url(#radialGradient15787)" opacity=".740458"/>
          <path d="m-12.245783 130.71785c4.560787.50607 6.081056.68654 11.40195899.54144 0-3.93512 12.97695401-12.00174 8.36144501-12.00174-4.615522 0-19.763404 7.52518-19.763404 11.4603z" fill="url(#linearGradient15789)" opacity=".530534"/>
          <path d="m-16.819348 129.89298c3.451046.26996 4.601394.36623 8.627606.28882 0-2.09923 9.819359-6.40243 6.326909-6.40243-3.492457 0-14.954515 4.01437-14.954515 6.11361z" fill="#a4c0e4" fill-opacity=".988235" opacity=".637405"/>
        </g>
        <g filter="url(#filter24921)" transform="matrix(.4225293 0 0 .527348 -20.990486 -34.997463)">
          <path d="m-14.950892 130.83163c-3.905763.44474-5.207688.60335-9.764398.47584 0-3.45831-11.11318-10.54747-7.160559-10.54747 3.952628 0 16.924957 6.61334 16.924957 10.07163z" fill="url(#radialGradient15771)"/>
          <path d="m-.41093 131.23659c-13.226912.36348-17.635898.49311-33.067299.38889 0-2.82649-37.634924-8.62052-24.249311-8.62052 13.385655 0 57.31661 5.40513 57.31661 8.23163z" fill="#a4c0e4" fill-opacity=".988235"/>
          <path d="m-20.764991 130.8546c-5.744259.58749-7.65902.79702-14.36066.62857 0-4.56841-16.344313-13.93321-10.531131-13.93321 5.813201 0 24.891791 8.73623 24.891791 13.30464z" fill="url(#linearGradient15773)" opacity=".278626"/>
          <path d="m-23.466574 130.87541c-1.912003.40718-2.549337.55241-4.780002.43566 0-3.16632-5.440275-9.65693-3.505332-9.65693 1.934945 0 8.285334 6.05495 8.285334 9.22127z" fill="#eeeeec" fill-opacity=".988235" opacity=".637405"/>
          <path d="m-26.265592 129.95295c-2.170878.55754-2.894502.75637-5.427185.59652 0-4.33549-6.176859-13.22281-3.979937-13.22281 2.196925 0 9.407122 8.29079 9.407122 12.62629z" fill="url(#radialGradient15775)"/>
          <g fill-opacity=".988235">
            <path d="m-30.813437 130.45138c-3.260216.55177-4.346959.74855-8.150537.59034 0-4.29053-9.276395-13.08567-5.977066-13.08567 3.299344 0 14.127603 8.20481 14.127603 12.49533z" fill="#eeeeec" opacity=".71374"/>
            <path d="m-29.17045 130.20384c-4.856787.39134-6.475715.5309-12.141954.41869 0-3.04313-13.819154-9.28125-8.904096-9.28125 4.915065 0 21.04605 5.81941 21.04605 8.86256z" fill="#eeeeec" opacity=".637405"/>
            <path d="m-33.255956 130.93098c-3.872473.64342-5.163298.87289-9.681173.6884 0-5.00332-11.018456-15.25962-7.099523-15.25962 3.918942 0 16.780696 9.5679 16.780696 14.57122z" fill="#eeeeec" opacity=".637405"/>
            <path d="m-33.255956 131.09989c-3.013274.49853-4.0177.67632-7.533179.53338 0-3.87663-8.573754-11.82334-5.524328-11.82334 3.049433 0 13.057507 7.41333 13.057507 11.28996z" fill="#eeeeec" opacity=".583969"/>
          </g>
          <path d="m-33.255956 131.25048c-1.933069.36935-2.577426.50107-4.832667.39517 0-2.8721-5.500215-8.75962-3.543954-8.75962 1.956265 0 8.376621 5.49235 8.376621 8.36445z" fill="url(#radialGradient15777)" opacity=".740458"/>
          <path d="m-34.632558 130.94786c-4.560787.50607-6.081056.68654-11.401959.54144 0-3.93512-12.976954-12.00174-8.361445-12.00174 4.615522 0 19.763404 7.52518 19.763404 11.4603z" fill="url(#linearGradient15779)" opacity=".530534"/>
          <path d="m-30.058993 130.12299c-3.451046.26996-4.601394.36623-8.627606.28882 0-2.09923-9.819359-6.40243-6.326909-6.40243 3.492457 0 14.954515 4.01437 14.954515 6.11361z" fill="#a4c0e4" fill-opacity=".988235" opacity=".637405"/>
          <path d="m-31.927449 130.60162c3.905763.44474 5.207688.60335 9.764398.47584 0-3.45831 11.11318-10.54747 7.160559-10.54747-3.952628 0-16.924957 6.61334-16.924957 10.07163z" fill="url(#radialGradient15781)"/>
          <path d="m-26.11335 130.62459c5.744259.58749 7.65902.79702 14.36066.62857 0-4.56841 16.344313-13.93321 10.531131-13.93321-5.813201 0-24.891791 8.73623-24.891791 13.30464z" fill="url(#linearGradient15783)" opacity=".278626"/>
          <path d="m-23.411767 130.6454c1.912003.40718 2.549337.55241 4.780002.43566 0-3.16632 5.440275-9.65693 3.505332-9.65693-1.934945 0-8.285334 6.05495-8.285334 9.22127z" fill="#eeeeec" fill-opacity=".988235" opacity=".637405"/>
          <path d="m-20.612749 129.72294c2.170878.55754 2.894502.75637 5.427185.59652 0-4.33549 6.176859-13.22281 3.979937-13.22281-2.196925 0-9.407122 8.29079-9.407122 12.62629z" fill="url(#radialGradient15785)"/>
          <path d="m-16.064904 130.22137c3.260216.55177 4.346959.74855 8.150537.59034 0-4.29053 9.276395-13.08567 5.977066-13.08567-3.299344 0-14.127603 8.20481-14.127603 12.49533z" fill="#eeeeec" fill-opacity=".988235" opacity=".71374"/>
          <path d="m-17.707891 129.97383c4.856787.39134 6.475715.5309 12.141954.41869 0-3.04313 13.819154-9.28125 8.904096-9.28125-4.915065 0-21.04605 5.81941-21.04605 8.86256z" fill="#eeeeec" fill-opacity=".988235" opacity=".637405"/>
          <path d="m-13.622385 130.70097c3.872473.64342 5.163298.87289 9.681173.6884 0-5.00332 11.018456-15.25962 7.099523-15.25962-3.91894201 0-16.780696 9.5679-16.780696 14.57122z" fill="#eeeeec" fill-opacity=".988235" opacity=".637405"/>
          <path d="m-13.622385 130.86988c3.013274.49853 4.0177.67632 7.533179.53338 0-3.87663 8.573754-11.82334 5.52432799-11.82334-3.04943299 0-13.05750699 7.41333-13.05750699 11.28996z" fill="#eeeeec" fill-opacity=".988235" opacity=".583969"/>
          <path d="m-13.622385 131.02047c1.933069.36935 2.577426.50107 4.832667.39517 0-2.8721 5.500215-8.75962 3.543954-8.75962-1.956265 0-8.376621 5.49235-8.376621 8.36445z" fill="url(#radialGradient15787)" opacity=".740458"/>
          <path d="m-12.245783 130.71785c4.560787.50607 6.081056.68654 11.40195899.54144 0-3.93512 12.97695401-12.00174 8.36144501-12.00174-4.615522 0-19.763404 7.52518-19.763404 11.4603z" fill="url(#linearGradient15789)" opacity=".530534"/>
          <path d="m-16.819348 129.89298c3.451046.26996 4.601394.36623 8.627606.28882 0-2.09923 9.819359-6.40243 6.326909-6.40243-3.492457 0-14.954515 4.01437-14.954515 6.11361z" fill="#a4c0e4" fill-opacity=".988235" opacity=".637405"/>
        </g>
        <g opacity=".5" transform="matrix(.2522133 0 0 .8347638 -44.941091 -76.051004)">
          <path d="m-14.950892 130.83163c-3.905763.44474-5.207688.60335-9.764398.47584 0-3.45831-11.11318-10.54747-7.160559-10.54747 3.952628 0 16.924957 6.61334 16.924957 10.07163z" fill="url(#radialGradient15771)"/>
          <path d="m-.41093 131.23659c-13.226912.36348-17.635898.49311-33.067299.38889 0-2.82649-37.634924-8.62052-24.249311-8.62052 13.385655 0 57.31661 5.40513 57.31661 8.23163z" fill="#a4c0e4" fill-opacity=".988235"/>
          <path d="m-20.764991 130.8546c-5.744259.58749-7.65902.79702-14.36066.62857 0-4.56841-16.344313-13.93321-10.531131-13.93321 5.813201 0 24.891791 8.73623 24.891791 13.30464z" fill="url(#linearGradient15773)" opacity=".278626"/>
          <path d="m-23.466574 130.87541c-1.912003.40718-2.549337.55241-4.780002.43566 0-3.16632-5.440275-9.65693-3.505332-9.65693 1.934945 0 8.285334 6.05495 8.285334 9.22127z" fill="#eeeeec" fill-opacity=".988235" opacity=".637405"/>
          <path d="m-26.265592 129.95295c-2.170878.55754-2.894502.75637-5.427185.59652 0-4.33549-6.176859-13.22281-3.979937-13.22281 2.196925 0 9.407122 8.29079 9.407122 12.62629z" fill="url(#radialGradient15775)"/>
          <g fill-opacity=".988235">
            <path d="m-30.813437 130.45138c-3.260216.55177-4.346959.74855-8.150537.59034 0-4.29053-9.276395-13.08567-5.977066-13.08567 3.299344 0 14.127603 8.20481 14.127603 12.49533z" fill="#eeeeec" opacity=".71374"/>
            <path d="m-29.17045 130.20384c-4.856787.39134-6.475715.5309-12.141954.41869 0-3.04313-13.819154-9.28125-8.904096-9.28125 4.915065 0 21.04605 5.81941 21.04605 8.86256z" fill="#eeeeec" opacity=".637405"/>
            <path d="m-33.255956 130.93098c-3.872473.64342-5.163298.87289-9.681173.6884 0-5.00332-11.018456-15.25962-7.099523-15.25962 3.918942 0 16.780696 9.5679 16.780696 14.57122z" fill="#eeeeec" opacity=".637405"/>
            <path d="m-33.255956 131.09989c-3.013274.49853-4.0177.67632-7.533179.53338 0-3.87663-8.573754-11.82334-5.524328-11.82334 3.049433 0 13.057507 7.41333 13.057507 11.28996z" fill="#eeeeec" opacity=".583969"/>
          </g>
          <path d="m-33.255956 131.25048c-1.933069.36935-2.577426.50107-4.832667.39517 0-2.8721-5.500215-8.75962-3.543954-8.75962 1.956265 0 8.376621 5.49235 8.376621 8.36445z" fill="url(#radialGradient15777)" opacity=".740458"/>
          <path d="m-34.632558 130.94786c-4.560787.50607-6.081056.68654-11.401959.54144 0-3.93512-12.976954-12.00174-8.361445-12.00174 4.615522 0 19.763404 7.52518 19.763404 11.4603z" fill="url(#linearGradient15779)" opacity=".530534"/>
          <path d="m-30.058993 130.12299c-3.451046.26996-4.601394.36623-8.627606.28882 0-2.09923-9.819359-6.40243-6.326909-6.40243 3.492457 0 14.954515 4.01437 14.954515 6.11361z" fill="#a4c0e4" fill-opacity=".988235" opacity=".637405"/>
          <path d="m-31.927449 130.60162c3.905763.44474 5.207688.60335 9.764398.47584 0-3.45831 11.11318-10.54747 7.160559-10.54747-3.952628 0-16.924957 6.61334-16.924957 10.07163z" fill="url(#radialGradient15781)"/>
          <path d="m-26.11335 130.62459c5.744259.58749 7.65902.79702 14.36066.62857 0-4.56841 16.344313-13.93321 10.531131-13.93321-5.813201 0-24.891791 8.73623-24.891791 13.30464z" fill="url(#linearGradient15783)" opacity=".278626"/>
          <path d="m-23.411767 130.6454c1.912003.40718 2.549337.55241 4.780002.43566 0-3.16632 5.440275-9.65693 3.505332-9.65693-1.934945 0-8.285334 6.05495-8.285334 9.22127z" fill="#eeeeec" fill-opacity=".988235" opacity=".637405"/>
          <path d="m-20.612749 129.72294c2.170878.55754 2.894502.75637 5.427185.59652 0-4.33549 6.176859-13.22281 3.979937-13.22281-2.196925 0-9.407122 8.29079-9.407122 12.62629z" fill="url(#radialGradient15785)"/>
          <path d="m-16.064904 130.22137c3.260216.55177 4.346959.74855 8.150537.59034 0-4.29053 9.276395-13.08567 5.977066-13.08567-3.299344 0-14.127603 8.20481-14.127603 12.49533z" fill="#eeeeec" fill-opacity=".988235" opacity=".71374"/>
          <path d="m-17.707891 129.97383c4.856787.39134 6.475715.5309 12.141954.41869 0-3.04313 13.819154-9.28125 8.904096-9.28125-4.915065 0-21.04605 5.81941-21.04605 8.86256z" fill="#eeeeec" fill-opacity=".988235" opacity=".637405"/>
          <path d="m-13.622385 130.70097c3.872473.64342 5.163298.87289 9.681173.6884 0-5.00332 11.018456-15.25962 7.099523-15.25962-3.91894201 0-16.780696 9.5679-16.780696 14.57122z" fill="#eeeeec" fill-opacity=".988235" opacity=".637405"/>
          <path d="m-13.622385 130.86988c3.013274.49853 4.0177.67632 7.533179.53338 0-3.87663 8.573754-11.82334 5.52432799-11.82334-3.04943299 0-13.05750699 7.41333-13.05750699 11.28996z" fill="#eeeeec" fill-opacity=".988235" opacity=".583969"/>
          <path d="m-13.622385 131.02047c1.933069.36935 2.577426.50107 4.832667.39517 0-2.8721 5.500215-8.75962 3.543954-8.75962-1.956265 0-8.376621 5.49235-8.376621 8.36445z" fill="url(#radialGradient15787)" opacity=".740458"/>
          <path d="m-12.245783 130.71785c4.560787.50607 6.081056.68654 11.40195899.54144 0-3.93512 12.97695401-12.00174 8.36144501-12.00174-4.615522 0-19.763404 7.52518-19.763404 11.4603z" fill="url(#linearGradient15789)" opacity=".530534"/>
          <path d="m-16.819348 129.89298c3.451046.26996 4.601394.36623 8.627606.28882 0-2.09923 9.819359-6.40243 6.326909-6.40243-3.492457 0-14.954515 4.01437-14.954515 6.11361z" fill="#a4c0e4" fill-opacity=".988235" opacity=".637405"/>
        </g>
      </g>
      <path d="m18.754878 77.172743h52.755478l-26.377487 34.331687z" fill="url(#linearGradient15851)" opacity=".435114"/>
      <g opacity=".3" transform="matrix(1.3100413 0 0 -1.2167673 176.56993 137.71439)">
        <g filter="url(#filter24921)" transform="matrix(.4257857 0 0 .6794316 -99.334466 -28.112838)">
          <path d="m-14.950892 130.83163c-3.905763.44474-5.207688.60335-9.764398.47584 0-3.45831-11.11318-10.54747-7.160559-10.54747 3.952628 0 16.924957 6.61334 16.924957 10.07163z" fill="url(#radialGradient15771)"/>
          <path d="m-.41093 131.23659c-13.226912.36348-17.635898.49311-33.067299.38889 0-2.82649-37.634924-8.62052-24.249311-8.62052 13.385655 0 57.31661 5.40513 57.31661 8.23163z" fill="#a4c0e4" fill-opacity=".988235"/>
          <path d="m-20.764991 130.8546c-5.744259.58749-7.65902.79702-14.36066.62857 0-4.56841-16.344313-13.93321-10.531131-13.93321 5.813201 0 24.891791 8.73623 24.891791 13.30464z" fill="url(#linearGradient15773)" opacity=".278626"/>
          <path d="m-23.466574 130.87541c-1.912003.40718-2.549337.55241-4.780002.43566 0-3.16632-5.440275-9.65693-3.505332-9.65693 1.934945 0 8.285334 6.05495 8.285334 9.22127z" fill="#eeeeec" fill-opacity=".988235" opacity=".637405"/>
          <path d="m-26.265592 129.95295c-2.170878.55754-2.894502.75637-5.427185.59652 0-4.33549-6.176859-13.22281-3.979937-13.22281 2.196925 0 9.407122 8.29079 9.407122 12.62629z" fill="url(#radialGradient15775)"/>
          <g fill-opacity=".988235">
            <path d="m-30.813437 130.45138c-3.260216.55177-4.346959.74855-8.150537.59034 0-4.29053-9.276395-13.08567-5.977066-13.08567 3.299344 0 14.127603 8.20481 14.127603 12.49533z" fill="#eeeeec" opacity=".71374"/>
            <path d="m-29.17045 130.20384c-4.856787.39134-6.475715.5309-12.141954.41869 0-3.04313-13.819154-9.28125-8.904096-9.28125 4.915065 0 21.04605 5.81941 21.04605 8.86256z" fill="#eeeeec" opacity=".637405"/>
            <path d="m-33.255956 130.93098c-3.872473.64342-5.163298.87289-9.681173.6884 0-5.00332-11.018456-15.25962-7.099523-15.25962 3.918942 0 16.780696 9.5679 16.780696 14.57122z" fill="#eeeeec" opacity=".637405"/>
            <path d="m-33.255956 131.09989c-3.013274.49853-4.0177.67632-7.533179.53338 0-3.87663-8.573754-11.82334-5.524328-11.82334 3.049433 0 13.057507 7.41333 13.057507 11.28996z" fill="#eeeeec" opacity=".583969"/>
          </g>
          <path d="m-33.255956 131.25048c-1.933069.36935-2.577426.50107-4.832667.39517 0-2.8721-5.500215-8.75962-3.543954-8.75962 1.956265 0 8.376621 5.49235 8.376621 8.36445z" fill="url(#radialGradient15777)" opacity=".740458"/>
          <path d="m-34.632558 130.94786c-4.560787.50607-6.081056.68654-11.401959.54144 0-3.93512-12.976954-12.00174-8.361445-12.00174 4.615522 0 19.763404 7.52518 19.763404 11.4603z" fill="url(#linearGradient15779)" opacity=".530534"/>
          <path d="m-30.058993 130.12299c-3.451046.26996-4.601394.36623-8.627606.28882 0-2.09923-9.819359-6.40243-6.326909-6.40243 3.492457 0 14.954515 4.01437 14.954515 6.11361z" fill="#a4c0e4" fill-opacity=".988235" opacity=".637405"/>
          <path d="m-31.927449 130.60162c3.905763.44474 5.207688.60335 9.764398.47584 0-3.45831 11.11318-10.54747 7.160559-10.54747-3.952628 0-16.924957 6.61334-16.924957 10.07163z" fill="url(#radialGradient15781)"/>
          <path d="m-26.11335 130.62459c5.744259.58749 7.65902.79702 14.36066.62857 0-4.56841 16.344313-13.93321 10.531131-13.93321-5.813201 0-24.891791 8.73623-24.891791 13.30464z" fill="url(#linearGradient15783)" opacity=".278626"/>
          <path d="m-23.411767 130.6454c1.912003.40718 2.549337.55241 4.780002.43566 0-3.16632 5.440275-9.65693 3.505332-9.65693-1.934945 0-8.285334 6.05495-8.285334 9.22127z" fill="#eeeeec" fill-opacity=".988235" opacity=".637405"/>
          <path d="m-20.612749 129.72294c2.170878.55754 2.894502.75637 5.427185.59652 0-4.33549 6.176859-13.22281 3.979937-13.22281-2.196925 0-9.407122 8.29079-9.407122 12.62629z" fill="url(#radialGradient15785)"/>
          <path d="m-16.064904 130.22137c3.260216.55177 4.346959.74855 8.150537.59034 0-4.29053 9.276395-13.08567 5.977066-13.08567-3.299344 0-14.127603 8.20481-14.127603 12.49533z" fill="#eeeeec" fill-opacity=".988235" opacity=".71374"/>
          <path d="m-17.707891 129.97383c4.856787.39134 6.475715.5309 12.141954.41869 0-3.04313 13.819154-9.28125 8.904096-9.28125-4.915065 0-21.04605 5.81941-21.04605 8.86256z" fill="#eeeeec" fill-opacity=".988235" opacity=".637405"/>
          <path d="m-13.622385 130.70097c3.872473.64342 5.163298.87289 9.681173.6884 0-5.00332 11.018456-15.25962 7.099523-15.25962-3.91894201 0-16.780696 9.5679-16.780696 14.57122z" fill="#eeeeec" fill-opacity=".988235" opacity=".637405"/>
          <path d="m-13.622385 130.86988c3.013274.49853 4.0177.67632 7.533179.53338 0-3.87663 8.573754-11.82334 5.52432799-11.82334-3.04943299 0-13.05750699 7.41333-13.05750699 11.28996z" fill="#eeeeec" fill-opacity=".988235" opacity=".583969"/>
          <path d="m-13.622385 131.02047c1.933069.36935 2.577426.50107 4.832667.39517 0-2.8721 5.500215-8.75962 3.543954-8.75962-1.956265 0-8.376621 5.49235-8.376621 8.36445z" fill="url(#radialGradient15787)" opacity=".740458"/>
          <path d="m-12.245783 130.71785c4.560787.50607 6.081056.68654 11.40195899.54144 0-3.93512 12.97695401-12.00174 8.36144501-12.00174-4.615522 0-19.763404 7.52518-19.763404 11.4603z" fill="url(#linearGradient15789)" opacity=".530534"/>
          <path d="m-16.819348 129.89298c3.451046.26996 4.601394.36623 8.627606.28882 0-2.09923 9.819359-6.40243 6.326909-6.40243-3.492457 0-14.954515 4.01437-14.954515 6.11361z" fill="#a4c0e4" fill-opacity=".988235" opacity=".637405"/>
        </g>
        <g opacity=".5" transform="matrix(.3997331 0 0 .7104981 -99.337832 -30.915369)">
          <path d="m-14.950892 130.83163c-3.905763.44474-5.207688.60335-9.764398.47584 0-3.45831-11.11318-10.54747-7.160559-10.54747 3.952628 0 16.924957 6.61334 16.924957 10.07163z" fill="url(#radialGradient15771)"/>
          <path d="m-.41093 131.23659c-13.226912.36348-17.635898.49311-33.067299.38889 0-2.82649-37.634924-8.62052-24.249311-8.62052 13.385655 0 57.31661 5.40513 57.31661 8.23163z" fill="#a4c0e4" fill-opacity=".988235"/>
          <path d="m-20.764991 130.8546c-5.744259.58749-7.65902.79702-14.36066.62857 0-4.56841-16.344313-13.93321-10.531131-13.93321 5.813201 0 24.891791 8.73623 24.891791 13.30464z" fill="url(#linearGradient15773)" opacity=".278626"/>
          <path d="m-23.466574 130.87541c-1.912003.40718-2.549337.55241-4.780002.43566 0-3.16632-5.440275-9.65693-3.505332-9.65693 1.934945 0 8.285334 6.05495 8.285334 9.22127z" fill="#eeeeec" fill-opacity=".988235" opacity=".637405"/>
          <path d="m-26.265592 129.95295c-2.170878.55754-2.894502.75637-5.427185.59652 0-4.33549-6.176859-13.22281-3.979937-13.22281 2.196925 0 9.407122 8.29079 9.407122 12.62629z" fill="url(#radialGradient15775)"/>
          <g fill-opacity=".988235">
            <path d="m-30.813437 130.45138c-3.260216.55177-4.346959.74855-8.150537.59034 0-4.29053-9.276395-13.08567-5.977066-13.08567 3.299344 0 14.127603 8.20481 14.127603 12.49533z" fill="#eeeeec" opacity=".71374"/>
            <path d="m-29.17045 130.20384c-4.856787.39134-6.475715.5309-12.141954.41869 0-3.04313-13.819154-9.28125-8.904096-9.28125 4.915065 0 21.04605 5.81941 21.04605 8.86256z" fill="#eeeeec" opacity=".637405"/>
            <path d="m-33.255956 130.93098c-3.872473.64342-5.163298.87289-9.681173.6884 0-5.00332-11.018456-15.25962-7.099523-15.25962 3.918942 0 16.780696 9.5679 16.780696 14.57122z" fill="#eeeeec" opacity=".637405"/>
            <path d="m-33.255956 131.09989c-3.013274.49853-4.0177.67632-7.533179.53338 0-3.87663-8.573754-11.82334-5.524328-11.82334 3.049433 0 13.057507 7.41333 13.057507 11.28996z" fill="#eeeeec" opacity=".583969"/>
          </g>
          <path d="m-33.255956 131.25048c-1.933069.36935-2.577426.50107-4.832667.39517 0-2.8721-5.500215-8.75962-3.543954-8.75962 1.956265 0 8.376621 5.49235 8.376621 8.36445z" fill="url(#radialGradient15777)" opacity=".740458"/>
          <path d="m-34.632558 130.94786c-4.560787.50607-6.081056.68654-11.401959.54144 0-3.93512-12.976954-12.00174-8.361445-12.00174 4.615522 0 19.763404 7.52518 19.763404 11.4603z" fill="url(#linearGradient15779)" opacity=".530534"/>
          <path d="m-30.058993 130.12299c-3.451046.26996-4.601394.36623-8.627606.28882 0-2.09923-9.819359-6.40243-6.326909-6.40243 3.492457 0 14.954515 4.01437 14.954515 6.11361z" fill="#a4c0e4" fill-opacity=".988235" opacity=".637405"/>
          <path d="m-31.927449 130.60162c3.905763.44474 5.207688.60335 9.764398.47584 0-3.45831 11.11318-10.54747 7.160559-10.54747-3.952628 0-16.924957 6.61334-16.924957 10.07163z" fill="url(#radialGradient15781)"/>
          <path d="m-26.11335 130.62459c5.744259.58749 7.65902.79702 14.36066.62857 0-4.56841 16.344313-13.93321 10.531131-13.93321-5.813201 0-24.891791 8.73623-24.891791 13.30464z" fill="url(#linearGradient15783)" opacity=".278626"/>
          <path d="m-23.411767 130.6454c1.912003.40718 2.549337.55241 4.780002.43566 0-3.16632 5.440275-9.65693 3.505332-9.65693-1.934945 0-8.285334 6.05495-8.285334 9.22127z" fill="#eeeeec" fill-opacity=".988235" opacity=".637405"/>
          <path d="m-20.612749 129.72294c2.170878.55754 2.894502.75637 5.427185.59652 0-4.33549 6.176859-13.22281 3.979937-13.22281-2.196925 0-9.407122 8.29079-9.407122 12.62629z" fill="url(#radialGradient15785)"/>
          <path d="m-16.064904 130.22137c3.260216.55177 4.346959.74855 8.150537.59034 0-4.29053 9.276395-13.08567 5.977066-13.08567-3.299344 0-14.127603 8.20481-14.127603 12.49533z" fill="#eeeeec" fill-opacity=".988235" opacity=".71374"/>
          <path d="m-17.707891 129.97383c4.856787.39134 6.475715.5309 12.141954.41869 0-3.04313 13.819154-9.28125 8.904096-9.28125-4.915065 0-21.04605 5.81941-21.04605 8.86256z" fill="#eeeeec" fill-opacity=".988235" opacity=".637405"/>
          <path d="m-13.622385 130.70097c3.872473.64342 5.163298.87289 9.681173.6884 0-5.00332 11.018456-15.25962 7.099523-15.25962-3.91894201 0-16.780696 9.5679-16.780696 14.57122z" fill="#eeeeec" fill-opacity=".988235" opacity=".637405"/>
          <path d="m-13.622385 130.86988c3.013274.49853 4.0177.67632 7.533179.53338 0-3.87663 8.573754-11.82334 5.52432799-11.82334-3.04943299 0-13.05750699 7.41333-13.05750699 11.28996z" fill="#eeeeec" fill-opacity=".988235" opacity=".583969"/>
          <path d="m-13.622385 131.02047c1.933069.36935 2.577426.50107 4.832667.39517 0-2.8721 5.500215-8.75962 3.543954-8.75962-1.956265 0-8.376621 5.49235-8.376621 8.36445z" fill="url(#radialGradient15787)" opacity=".740458"/>
          <path d="m-12.245783 130.71785c4.560787.50607 6.081056.68654 11.40195899.54144 0-3.93512 12.97695401-12.00174 8.36144501-12.00174-4.615522 0-19.763404 7.52518-19.763404 11.4603z" fill="url(#linearGradient15789)" opacity=".530534"/>
          <path d="m-16.819348 129.89298c3.451046.26996 4.601394.36623 8.627606.28882 0-2.09923 9.819359-6.40243 6.326909-6.40243-3.492457 0-14.954515 4.01437-14.954515 6.11361z" fill="#a4c0e4" fill-opacity=".988235" opacity=".637405"/>
        </g>
        <g filter="url(#filter24921)" transform="matrix(.4225293 0 0 .527348 -79.94948 -6.908508)">
          <path d="m-14.950892 130.83163c-3.905763.44474-5.207688.60335-9.764398.47584 0-3.45831-11.11318-10.54747-7.160559-10.54747 3.952628 0 16.924957 6.61334 16.924957 10.07163z" fill="url(#radialGradient15771)"/>
          <path d="m-.41093 131.23659c-13.226912.36348-17.635898.49311-33.067299.38889 0-2.82649-37.634924-8.62052-24.249311-8.62052 13.385655 0 57.31661 5.40513 57.31661 8.23163z" fill="#a4c0e4" fill-opacity=".988235"/>
          <path d="m-20.764991 130.8546c-5.744259.58749-7.65902.79702-14.36066.62857 0-4.56841-16.344313-13.93321-10.531131-13.93321 5.813201 0 24.891791 8.73623 24.891791 13.30464z" fill="url(#linearGradient15773)" opacity=".278626"/>
          <path d="m-23.466574 130.87541c-1.912003.40718-2.549337.55241-4.780002.43566 0-3.16632-5.440275-9.65693-3.505332-9.65693 1.934945 0 8.285334 6.05495 8.285334 9.22127z" fill="#eeeeec" fill-opacity=".988235" opacity=".637405"/>
          <path d="m-26.265592 129.95295c-2.170878.55754-2.894502.75637-5.427185.59652 0-4.33549-6.176859-13.22281-3.979937-13.22281 2.196925 0 9.407122 8.29079 9.407122 12.62629z" fill="url(#radialGradient15775)"/>
          <g fill-opacity=".988235">
            <path d="m-30.813437 130.45138c-3.260216.55177-4.346959.74855-8.150537.59034 0-4.29053-9.276395-13.08567-5.977066-13.08567 3.299344 0 14.127603 8.20481 14.127603 12.49533z" fill="#eeeeec" opacity=".71374"/>
            <path d="m-29.17045 130.20384c-4.856787.39134-6.475715.5309-12.141954.41869 0-3.04313-13.819154-9.28125-8.904096-9.28125 4.915065 0 21.04605 5.81941 21.04605 8.86256z" fill="#eeeeec" opacity=".637405"/>
            <path d="m-33.255956 130.93098c-3.872473.64342-5.163298.87289-9.681173.6884 0-5.00332-11.018456-15.25962-7.099523-15.25962 3.918942 0 16.780696 9.5679 16.780696 14.57122z" fill="#eeeeec" opacity=".637405"/>
            <path d="m-33.255956 131.09989c-3.013274.49853-4.0177.67632-7.533179.53338 0-3.87663-8.573754-11.82334-5.524328-11.82334 3.049433 0 13.057507 7.41333 13.057507 11.28996z" fill="#eeeeec" opacity=".583969"/>
          </g>
          <path d="m-33.255956 131.25048c-1.933069.36935-2.577426.50107-4.832667.39517 0-2.8721-5.500215-8.75962-3.543954-8.75962 1.956265 0 8.376621 5.49235 8.376621 8.36445z" fill="url(#radialGradient15777)" opacity=".740458"/>
          <path d="m-34.632558 130.94786c-4.560787.50607-6.081056.68654-11.401959.54144 0-3.93512-12.976954-12.00174-8.361445-12.00174 4.615522 0 19.763404 7.52518 19.763404 11.4603z" fill="url(#linearGradient15779)" opacity=".530534"/>
          <path d="m-30.058993 130.12299c-3.451046.26996-4.601394.36623-8.627606.28882 0-2.09923-9.819359-6.40243-6.326909-6.40243 3.492457 0 14.954515 4.01437 14.954515 6.11361z" fill="#a4c0e4" fill-opacity=".988235" opacity=".637405"/>
          <path d="m-31.927449 130.60162c3.905763.44474 5.207688.60335 9.764398.47584 0-3.45831 11.11318-10.54747 7.160559-10.54747-3.952628 0-16.924957 6.61334-16.924957 10.07163z" fill="url(#radialGradient15781)"/>
          <path d="m-26.11335 130.62459c5.744259.58749 7.65902.79702 14.36066.62857 0-4.56841 16.344313-13.93321 10.531131-13.93321-5.813201 0-24.891791 8.73623-24.891791 13.30464z" fill="url(#linearGradient15783)" opacity=".278626"/>
          <path d="m-23.411767 130.6454c1.912003.40718 2.549337.55241 4.780002.43566 0-3.16632 5.440275-9.65693 3.505332-9.65693-1.934945 0-8.285334 6.05495-8.285334 9.22127z" fill="#eeeeec" fill-opacity=".988235" opacity=".637405"/>
          <path d="m-20.612749 129.72294c2.170878.55754 2.894502.75637 5.427185.59652 0-4.33549 6.176859-13.22281 3.979937-13.22281-2.196925 0-9.407122 8.29079-9.407122 12.62629z" fill="url(#radialGradient15785)"/>
          <path d="m-16.064904 130.22137c3.260216.55177 4.346959.74855 8.150537.59034 0-4.29053 9.276395-13.08567 5.977066-13.08567-3.299344 0-14.127603 8.20481-14.127603 12.49533z" fill="#eeeeec" fill-opacity=".988235" opacity=".71374"/>
          <path d="m-17.707891 129.97383c4.856787.39134 6.475715.5309 12.141954.41869 0-3.04313 13.819154-9.28125 8.904096-9.28125-4.915065 0-21.04605 5.81941-21.04605 8.86256z" fill="#eeeeec" fill-opacity=".988235" opacity=".637405"/>
          <path d="m-13.622385 130.70097c3.872473.64342 5.163298.87289 9.681173.6884 0-5.00332 11.018456-15.25962 7.099523-15.25962-3.91894201 0-16.780696 9.5679-16.780696 14.57122z" fill="#eeeeec" fill-opacity=".988235" opacity=".637405"/>
          <path d="m-13.622385 130.86988c3.013274.49853 4.0177.67632 7.533179.53338 0-3.87663 8.573754-11.82334 5.52432799-11.82334-3.04943299 0-13.05750699 7.41333-13.05750699 11.28996z" fill="#eeeeec" fill-opacity=".988235" opacity=".583969"/>
          <path d="m-13.622385 131.02047c1.933069.36935 2.577426.50107 4.832667.39517 0-2.8721 5.500215-8.75962 3.543954-8.75962-1.956265 0-8.376621 5.49235-8.376621 8.36445z" fill="url(#radialGradient15787)" opacity=".740458"/>
          <path d="m-12.245783 130.71785c4.560787.50607 6.081056.68654 11.40195899.54144 0-3.93512 12.97695401-12.00174 8.36144501-12.00174-4.615522 0-19.763404 7.52518-19.763404 11.4603z" fill="url(#linearGradient15789)" opacity=".530534"/>
          <path d="m-16.819348 129.89298c3.451046.26996 4.601394.36623 8.627606.28882 0-2.09923 9.819359-6.40243 6.326909-6.40243-3.492457 0-14.954515 4.01437-14.954515 6.11361z" fill="#a4c0e4" fill-opacity=".988235" opacity=".637405"/>
        </g>
        <g opacity=".5" transform="matrix(.2522133 0 0 .8347638 -103.90008 -47.962049)">
          <path d="m-14.950892 130.83163c-3.905763.44474-5.207688.60335-9.764398.47584 0-3.45831-11.11318-10.54747-7.160559-10.54747 3.952628 0 16.924957 6.61334 16.924957 10.07163z" fill="url(#radialGradient15771)"/>
          <path d="m-.41093 131.23659c-13.226912.36348-17.635898.49311-33.067299.38889 0-2.82649-37.634924-8.62052-24.249311-8.62052 13.385655 0 57.31661 5.40513 57.31661 8.23163z" fill="#a4c0e4" fill-opacity=".988235"/>
          <path d="m-20.764991 130.8546c-5.744259.58749-7.65902.79702-14.36066.62857 0-4.56841-16.344313-13.93321-10.531131-13.93321 5.813201 0 24.891791 8.73623 24.891791 13.30464z" fill="url(#linearGradient15773)" opacity=".278626"/>
          <path d="m-23.466574 130.87541c-1.912003.40718-2.549337.55241-4.780002.43566 0-3.16632-5.440275-9.65693-3.505332-9.65693 1.934945 0 8.285334 6.05495 8.285334 9.22127z" fill="#eeeeec" fill-opacity=".988235" opacity=".637405"/>
          <path d="m-26.265592 129.95295c-2.170878.55754-2.894502.75637-5.427185.59652 0-4.33549-6.176859-13.22281-3.979937-13.22281 2.196925 0 9.407122 8.29079 9.407122 12.62629z" fill="url(#radialGradient15775)"/>
          <g fill-opacity=".988235">
            <path d="m-30.813437 130.45138c-3.260216.55177-4.346959.74855-8.150537.59034 0-4.29053-9.276395-13.08567-5.977066-13.08567 3.299344 0 14.127603 8.20481 14.127603 12.49533z" fill="#eeeeec" opacity=".71374"/>
            <path d="m-29.17045 130.20384c-4.856787.39134-6.475715.5309-12.141954.41869 0-3.04313-13.819154-9.28125-8.904096-9.28125 4.915065 0 21.04605 5.81941 21.04605 8.86256z" fill="#eeeeec" opacity=".637405"/>
            <path d="m-33.255956 130.93098c-3.872473.64342-5.163298.87289-9.681173.6884 0-5.00332-11.018456-15.25962-7.099523-15.25962 3.918942 0 16.780696 9.5679 16.780696 14.57122z" fill="#eeeeec" opacity=".637405"/>
            <path d="m-33.255956 131.09989c-3.013274.49853-4.0177.67632-7.533179.53338 0-3.87663-8.573754-11.82334-5.524328-11.82334 3.049433 0 13.057507 7.41333 13.057507 11.28996z" fill="#eeeeec" opacity=".583969"/>
          </g>
          <path d="m-33.255956 131.25048c-1.933069.36935-2.577426.50107-4.832667.39517 0-2.8721-5.500215-8.75962-3.543954-8.75962 1.956265 0 8.376621 5.49235 8.376621 8.36445z" fill="url(#radialGradient15777)" opacity=".740458"/>
          <path d="m-34.632558 130.94786c-4.560787.50607-6.081056.68654-11.401959.54144 0-3.93512-12.976954-12.00174-8.361445-12.00174 4.615522 0 19.763404 7.52518 19.763404 11.4603z" fill="url(#linearGradient15779)" opacity=".530534"/>
          <path d="m-30.058993 130.12299c-3.451046.26996-4.601394.36623-8.627606.28882 0-2.09923-9.819359-6.40243-6.326909-6.40243 3.492457 0 14.954515 4.01437 14.954515 6.11361z" fill="#a4c0e4" fill-opacity=".988235" opacity=".637405"/>
          <path d="m-31.927449 130.60162c3.905763.44474 5.207688.60335 9.764398.47584 0-3.45831 11.11318-10.54747 7.160559-10.54747-3.952628 0-16.924957 6.61334-16.924957 10.07163z" fill="url(#radialGradient15781)"/>
          <path d="m-26.11335 130.62459c5.744259.58749 7.65902.79702 14.36066.62857 0-4.56841 16.344313-13.93321 10.531131-13.93321-5.813201 0-24.891791 8.73623-24.891791 13.30464z" fill="url(#linearGradient15783)" opacity=".278626"/>
          <path d="m-23.411767 130.6454c1.912003.40718 2.549337.55241 4.780002.43566 0-3.16632 5.440275-9.65693 3.505332-9.65693-1.934945 0-8.285334 6.05495-8.285334 9.22127z" fill="#eeeeec" fill-opacity=".988235" opacity=".637405"/>
          <path d="m-20.612749 129.72294c2.170878.55754 2.894502.75637 5.427185.59652 0-4.33549 6.176859-13.22281 3.979937-13.22281-2.196925 0-9.407122 8.29079-9.407122 12.62629z" fill="url(#radialGradient15785)"/>
          <path d="m-16.064904 130.22137c3.260216.55177 4.346959.74855 8.150537.59034 0-4.29053 9.276395-13.08567 5.977066-13.08567-3.299344 0-14.127603 8.20481-14.127603 12.49533z" fill="#eeeeec" fill-opacity=".988235" opacity=".71374"/>
          <path d="m-17.707891 129.97383c4.856787.39134 6.475715.5309 12.141954.41869 0-3.04313 13.819154-9.28125 8.904096-9.28125-4.915065 0-21.04605 5.81941-21.04605 8.86256z" fill="#eeeeec" fill-opacity=".988235" opacity=".637405"/>
          <path d="m-13.622385 130.70097c3.872473.64342 5.163298.87289 9.681173.6884 0-5.00332 11.018456-15.25962 7.099523-15.25962-3.91894201 0-16.780696 9.5679-16.780696 14.57122z" fill="#eeeeec" fill-opacity=".988235" opacity=".637405"/>
          <path d="m-13.622385 130.86988c3.013274.49853 4.0177.67632 7.533179.53338 0-3.87663 8.573754-11.82334 5.52432799-11.82334-3.04943299 0-13.05750699 7.41333-13.05750699 11.28996z" fill="#eeeeec" fill-opacity=".988235" opacity=".583969"/>
          <path d="m-13.622385 131.02047c1.933069.36935 2.577426.50107 4.832667.39517 0-2.8721 5.500215-8.75962 3.543954-8.75962-1.956265 0-8.376621 5.49235-8.376621 8.36445z" fill="url(#radialGradient15787)" opacity=".740458"/>
          <path d="m-12.245783 130.71785c4.560787.50607 6.081056.68654 11.40195899.54144 0-3.93512 12.97695401-12.00174 8.36144501-12.00174-4.615522 0-19.763404 7.52518-19.763404 11.4603z" fill="url(#linearGradient15789)" opacity=".530534"/>
          <path d="m-16.819348 129.89298c3.451046.26996 4.601394.36623 8.627606.28882 0-2.09923 9.819359-6.40243 6.326909-6.40243-3.492457 0-14.954515 4.01437-14.954515 6.11361z" fill="#a4c0e4" fill-opacity=".988235" opacity=".637405"/>
        </g>
      </g>
      <g opacity=".3" transform="matrix(1.2774795 0 0 -1.0186607 99.10101 100.66432)">
        <g transform="matrix(.489289 0 0 -.7001426 -125.47714 114.88973)">
          <path d="m143.27396-146.25682 26.72891-33.16424 28.0794 34.10131v30.30731h-54.27728z" fill="url(#linearGradient15711)" opacity=".683206" transform="scale(1 -1)"/>
          <path d="m144.3334 178.34902v-63.10721h14.8125v63.10721z" fill="url(#radialGradient15713)"/>
          <path d="m161.48965 176.76624v-61.61581h5.59375v61.61581z" fill="url(#radialGradient15715)"/>
          <path d="m174.36465 178.2532v-63.10277h12.34375v63.10277z" fill="url(#radialGradient15717)"/>
          <path d="m184.11465 178.31516v-63.00983h12.3125v63.00983z" fill="url(#radialGradient15719)"/>
          <path d="m165.7084 178.25649v-62.82961h12.34375v62.82961z" fill="url(#radialGradient15721)"/>
          <path d="m155.11465 178.4724v-63.04552h12.34375v63.04552z" fill="url(#radialGradient15723)"/>
        </g>
        <g fill="url(#radialGradient15725)" transform="matrix(.489289 0 0 -.7001426 -127.20704 114.88973)">
          <path d="m166.28767-170.44045 31.7946-8.57199v64h-54.27728v-27.51405z" opacity=".683206" transform="scale(1 -1)"/>
          <path d="m144.3334 144.89002v-29.64821h14.8125v63.10721z"/>
          <path d="m161.48965 176.76624v-61.61581h5.59375v61.61581z"/>
          <path d="m174.36465 178.2532v-63.10277h12.34375v63.10277z"/>
          <path d="m184.11465 178.31516v-63.00983h12.3125v63.00983z"/>
          <path d="m165.7084 178.25649v-62.82961h12.34375v62.82961z"/>
          <path d="m155.11465 178.4724v-63.04552h12.34375v63.04552z"/>
        </g>
        <g filter="url(#filter24921)" transform="matrix(.4257857 0 0 .6794316 -40.375472 -56.201793)">
          <path d="m-14.950892 130.83163c-3.905763.44474-5.207688.60335-9.764398.47584 0-3.45831-11.11318-10.54747-7.160559-10.54747 3.952628 0 16.924957 6.61334 16.924957 10.07163z" fill="url(#radialGradient15771)"/>
          <path d="m-.41093 131.23659c-13.226912.36348-17.635898.49311-33.067299.38889 0-2.82649-37.634924-8.62052-24.249311-8.62052 13.385655 0 57.31661 5.40513 57.31661 8.23163z" fill="#a4c0e4" fill-opacity=".988235"/>
          <path d="m-20.764991 130.8546c-5.744259.58749-7.65902.79702-14.36066.62857 0-4.56841-16.344313-13.93321-10.531131-13.93321 5.813201 0 24.891791 8.73623 24.891791 13.30464z" fill="url(#linearGradient15773)" opacity=".278626"/>
          <path d="m-23.466574 130.87541c-1.912003.40718-2.549337.55241-4.780002.43566 0-3.16632-5.440275-9.65693-3.505332-9.65693 1.934945 0 8.285334 6.05495 8.285334 9.22127z" fill="#eeeeec" fill-opacity=".988235" opacity=".637405"/>
          <path d="m-26.265592 129.95295c-2.170878.55754-2.894502.75637-5.427185.59652 0-4.33549-6.176859-13.22281-3.979937-13.22281 2.196925 0 9.407122 8.29079 9.407122 12.62629z" fill="url(#radialGradient15775)"/>
          <g fill-opacity=".988235">
            <path d="m-30.813437 130.45138c-3.260216.55177-4.346959.74855-8.150537.59034 0-4.29053-9.276395-13.08567-5.977066-13.08567 3.299344 0 14.127603 8.20481 14.127603 12.49533z" fill="#eeeeec" opacity=".71374"/>
            <path d="m-29.17045 130.20384c-4.856787.39134-6.475715.5309-12.141954.41869 0-3.04313-13.819154-9.28125-8.904096-9.28125 4.915065 0 21.04605 5.81941 21.04605 8.86256z" fill="#eeeeec" opacity=".637405"/>
            <path d="m-33.255956 130.93098c-3.872473.64342-5.163298.87289-9.681173.6884 0-5.00332-11.018456-15.25962-7.099523-15.25962 3.918942 0 16.780696 9.5679 16.780696 14.57122z" fill="#eeeeec" opacity=".637405"/>
            <path d="m-33.255956 131.09989c-3.013274.49853-4.0177.67632-7.533179.53338 0-3.87663-8.573754-11.82334-5.524328-11.82334 3.049433 0 13.057507 7.41333 13.057507 11.28996z" fill="#eeeeec" opacity=".583969"/>
          </g>
          <path d="m-33.255956 131.25048c-1.933069.36935-2.577426.50107-4.832667.39517 0-2.8721-5.500215-8.75962-3.543954-8.75962 1.956265 0 8.376621 5.49235 8.376621 8.36445z" fill="url(#radialGradient15777)" opacity=".740458"/>
          <path d="m-34.632558 130.94786c-4.560787.50607-6.081056.68654-11.401959.54144 0-3.93512-12.976954-12.00174-8.361445-12.00174 4.615522 0 19.763404 7.52518 19.763404 11.4603z" fill="url(#linearGradient15779)" opacity=".530534"/>
          <path d="m-30.058993 130.12299c-3.451046.26996-4.601394.36623-8.627606.28882 0-2.09923-9.819359-6.40243-6.326909-6.40243 3.492457 0 14.954515 4.01437 14.954515 6.11361z" fill="#a4c0e4" fill-opacity=".988235" opacity=".637405"/>
          <path d="m-31.927449 130.60162c3.905763.44474 5.207688.60335 9.764398.47584 0-3.45831 11.11318-10.54747 7.160559-10.54747-3.952628 0-16.924957 6.61334-16.924957 10.07163z" fill="url(#radialGradient15781)"/>
          <path d="m-26.11335 130.62459c5.744259.58749 7.65902.79702 14.36066.62857 0-4.56841 16.344313-13.93321 10.531131-13.93321-5.813201 0-24.891791 8.73623-24.891791 13.30464z" fill="url(#linearGradient15783)" opacity=".278626"/>
          <path d="m-23.411767 130.6454c1.912003.40718 2.549337.55241 4.780002.43566 0-3.16632 5.440275-9.65693 3.505332-9.65693-1.934945 0-8.285334 6.05495-8.285334 9.22127z" fill="#eeeeec" fill-opacity=".988235" opacity=".637405"/>
          <path d="m-20.612749 129.72294c2.170878.55754 2.894502.75637 5.427185.59652 0-4.33549 6.176859-13.22281 3.979937-13.22281-2.196925 0-9.407122 8.29079-9.407122 12.62629z" fill="url(#radialGradient15785)"/>
          <path d="m-16.064904 130.22137c3.260216.55177 4.346959.74855 8.150537.59034 0-4.29053 9.276395-13.08567 5.977066-13.08567-3.299344 0-14.127603 8.20481-14.127603 12.49533z" fill="#eeeeec" fill-opacity=".988235" opacity=".71374"/>
          <path d="m-17.707891 129.97383c4.856787.39134 6.475715.5309 12.141954.41869 0-3.04313 13.819154-9.28125 8.904096-9.28125-4.915065 0-21.04605 5.81941-21.04605 8.86256z" fill="#eeeeec" fill-opacity=".988235" opacity=".637405"/>
          <path d="m-13.622385 130.70097c3.872473.64342 5.163298.87289 9.681173.6884 0-5.00332 11.018456-15.25962 7.099523-15.25962-3.91894201 0-16.780696 9.5679-16.780696 14.57122z" fill="#eeeeec" fill-opacity=".988235" opacity=".637405"/>
          <path d="m-13.622385 130.86988c3.013274.49853 4.0177.67632 7.533179.53338 0-3.87663 8.573754-11.82334 5.52432799-11.82334-3.04943299 0-13.05750699 7.41333-13.05750699 11.28996z" fill="#eeeeec" fill-opacity=".988235" opacity=".583969"/>
          <path d="m-13.622385 131.02047c1.933069.36935 2.577426.50107 4.832667.39517 0-2.8721 5.500215-8.75962 3.543954-8.75962-1.956265 0-8.376621 5.49235-8.376621 8.36445z" fill="url(#radialGradient15787)" opacity=".740458"/>
          <path d="m-12.245783 130.71785c4.560787.50607 6.081056.68654 11.40195899.54144 0-3.93512 12.97695401-12.00174 8.36144501-12.00174-4.615522 0-19.763404 7.52518-19.763404 11.4603z" fill="url(#linearGradient15789)" opacity=".530534"/>
          <path d="m-16.819348 129.89298c3.451046.26996 4.601394.36623 8.627606.28882 0-2.09923 9.819359-6.40243 6.326909-6.40243-3.492457 0-14.954515 4.01437-14.954515 6.11361z" fill="#a4c0e4" fill-opacity=".988235" opacity=".637405"/>
        </g>
        <g opacity=".5" transform="matrix(.3997331 0 0 .7104981 -40.378838 -59.004324)">
          <path d="m-14.950892 130.83163c-3.905763.44474-5.207688.60335-9.764398.47584 0-3.45831-11.11318-10.54747-7.160559-10.54747 3.952628 0 16.924957 6.61334 16.924957 10.07163z" fill="url(#radialGradient15771)"/>
          <path d="m-.41093 131.23659c-13.226912.36348-17.635898.49311-33.067299.38889 0-2.82649-37.634924-8.62052-24.249311-8.62052 13.385655 0 57.31661 5.40513 57.31661 8.23163z" fill="#a4c0e4" fill-opacity=".988235"/>
          <path d="m-20.764991 130.8546c-5.744259.58749-7.65902.79702-14.36066.62857 0-4.56841-16.344313-13.93321-10.531131-13.93321 5.813201 0 24.891791 8.73623 24.891791 13.30464z" fill="url(#linearGradient15773)" opacity=".278626"/>
          <path d="m-23.466574 130.87541c-1.912003.40718-2.549337.55241-4.780002.43566 0-3.16632-5.440275-9.65693-3.505332-9.65693 1.934945 0 8.285334 6.05495 8.285334 9.22127z" fill="#eeeeec" fill-opacity=".988235" opacity=".637405"/>
          <path d="m-26.265592 129.95295c-2.170878.55754-2.894502.75637-5.427185.59652 0-4.33549-6.176859-13.22281-3.979937-13.22281 2.196925 0 9.407122 8.29079 9.407122 12.62629z" fill="url(#radialGradient15775)"/>
          <g fill-opacity=".988235">
            <path d="m-30.813437 130.45138c-3.260216.55177-4.346959.74855-8.150537.59034 0-4.29053-9.276395-13.08567-5.977066-13.08567 3.299344 0 14.127603 8.20481 14.127603 12.49533z" fill="#eeeeec" opacity=".71374"/>
            <path d="m-29.17045 130.20384c-4.856787.39134-6.475715.5309-12.141954.41869 0-3.04313-13.819154-9.28125-8.904096-9.28125 4.915065 0 21.04605 5.81941 21.04605 8.86256z" fill="#eeeeec" opacity=".637405"/>
            <path d="m-33.255956 130.93098c-3.872473.64342-5.163298.87289-9.681173.6884 0-5.00332-11.018456-15.25962-7.099523-15.25962 3.918942 0 16.780696 9.5679 16.780696 14.57122z" fill="#eeeeec" opacity=".637405"/>
            <path d="m-33.255956 131.09989c-3.013274.49853-4.0177.67632-7.533179.53338 0-3.87663-8.573754-11.82334-5.524328-11.82334 3.049433 0 13.057507 7.41333 13.057507 11.28996z" fill="#eeeeec" opacity=".583969"/>
          </g>
          <path d="m-33.255956 131.25048c-1.933069.36935-2.577426.50107-4.832667.39517 0-2.8721-5.500215-8.75962-3.543954-8.75962 1.956265 0 8.376621 5.49235 8.376621 8.36445z" fill="url(#radialGradient15777)" opacity=".740458"/>
          <path d="m-34.632558 130.94786c-4.560787.50607-6.081056.68654-11.401959.54144 0-3.93512-12.976954-12.00174-8.361445-12.00174 4.615522 0 19.763404 7.52518 19.763404 11.4603z" fill="url(#linearGradient15779)" opacity=".530534"/>
          <path d="m-30.058993 130.12299c-3.451046.26996-4.601394.36623-8.627606.28882 0-2.09923-9.819359-6.40243-6.326909-6.40243 3.492457 0 14.954515 4.01437 14.954515 6.11361z" fill="#a4c0e4" fill-opacity=".988235" opacity=".637405"/>
          <path d="m-31.927449 130.60162c3.905763.44474 5.207688.60335 9.764398.47584 0-3.45831 11.11318-10.54747 7.160559-10.54747-3.952628 0-16.924957 6.61334-16.924957 10.07163z" fill="url(#radialGradient15781)"/>
          <path d="m-26.11335 130.62459c5.744259.58749 7.65902.79702 14.36066.62857 0-4.56841 16.344313-13.93321 10.531131-13.93321-5.813201 0-24.891791 8.73623-24.891791 13.30464z" fill="url(#linearGradient15783)" opacity=".278626"/>
          <path d="m-23.411767 130.6454c1.912003.40718 2.549337.55241 4.780002.43566 0-3.16632 5.440275-9.65693 3.505332-9.65693-1.934945 0-8.285334 6.05495-8.285334 9.22127z" fill="#eeeeec" fill-opacity=".988235" opacity=".637405"/>
          <path d="m-20.612749 129.72294c2.170878.55754 2.894502.75637 5.427185.59652 0-4.33549 6.176859-13.22281 3.979937-13.22281-2.196925 0-9.407122 8.29079-9.407122 12.62629z" fill="url(#radialGradient15785)"/>
          <path d="m-16.064904 130.22137c3.260216.55177 4.346959.74855 8.150537.59034 0-4.29053 9.276395-13.08567 5.977066-13.08567-3.299344 0-14.127603 8.20481-14.127603 12.49533z" fill="#eeeeec" fill-opacity=".988235" opacity=".71374"/>
          <path d="m-17.707891 129.97383c4.856787.39134 6.475715.5309 12.141954.41869 0-3.04313 13.819154-9.28125 8.904096-9.28125-4.915065 0-21.04605 5.81941-21.04605 8.86256z" fill="#eeeeec" fill-opacity=".988235" opacity=".637405"/>
          <path d="m-13.622385 130.70097c3.872473.64342 5.163298.87289 9.681173.6884 0-5.00332 11.018456-15.25962 7.099523-15.25962-3.91894201 0-16.780696 9.5679-16.780696 14.57122z" fill="#eeeeec" fill-opacity=".988235" opacity=".637405"/>
          <path d="m-13.622385 130.86988c3.013274.49853 4.0177.67632 7.533179.53338 0-3.87663 8.573754-11.82334 5.52432799-11.82334-3.04943299 0-13.05750699 7.41333-13.05750699 11.28996z" fill="#eeeeec" fill-opacity=".988235" opacity=".583969"/>
          <path d="m-13.622385 131.02047c1.933069.36935 2.577426.50107 4.832667.39517 0-2.8721 5.500215-8.75962 3.543954-8.75962-1.956265 0-8.376621 5.49235-8.376621 8.36445z" fill="url(#radialGradient15787)" opacity=".740458"/>
          <path d="m-12.245783 130.71785c4.560787.50607 6.081056.68654 11.40195899.54144 0-3.93512 12.97695401-12.00174 8.36144501-12.00174-4.615522 0-19.763404 7.52518-19.763404 11.4603z" fill="url(#linearGradient15789)" opacity=".530534"/>
          <path d="m-16.819348 129.89298c3.451046.26996 4.601394.36623 8.627606.28882 0-2.09923 9.819359-6.40243 6.326909-6.40243-3.492457 0-14.954515 4.01437-14.954515 6.11361z" fill="#a4c0e4" fill-opacity=".988235" opacity=".637405"/>
        </g>
        <g filter="url(#filter24921)" transform="matrix(.4225293 0 0 .527348 -20.990486 -34.997463)">
          <path d="m-14.950892 130.83163c-3.905763.44474-5.207688.60335-9.764398.47584 0-3.45831-11.11318-10.54747-7.160559-10.54747 3.952628 0 16.924957 6.61334 16.924957 10.07163z" fill="url(#radialGradient15771)"/>
          <path d="m-.41093 131.23659c-13.226912.36348-17.635898.49311-33.067299.38889 0-2.82649-37.634924-8.62052-24.249311-8.62052 13.385655 0 57.31661 5.40513 57.31661 8.23163z" fill="#a4c0e4" fill-opacity=".988235"/>
          <path d="m-20.764991 130.8546c-5.744259.58749-7.65902.79702-14.36066.62857 0-4.56841-16.344313-13.93321-10.531131-13.93321 5.813201 0 24.891791 8.73623 24.891791 13.30464z" fill="url(#linearGradient15773)" opacity=".278626"/>
          <path d="m-23.466574 130.87541c-1.912003.40718-2.549337.55241-4.780002.43566 0-3.16632-5.440275-9.65693-3.505332-9.65693 1.934945 0 8.285334 6.05495 8.285334 9.22127z" fill="#eeeeec" fill-opacity=".988235" opacity=".637405"/>
          <path d="m-26.265592 129.95295c-2.170878.55754-2.894502.75637-5.427185.59652 0-4.33549-6.176859-13.22281-3.979937-13.22281 2.196925 0 9.407122 8.29079 9.407122 12.62629z" fill="url(#radialGradient15775)"/>
          <g fill-opacity=".988235">
            <path d="m-30.813437 130.45138c-3.260216.55177-4.346959.74855-8.150537.59034 0-4.29053-9.276395-13.08567-5.977066-13.08567 3.299344 0 14.127603 8.20481 14.127603 12.49533z" fill="#eeeeec" opacity=".71374"/>
            <path d="m-29.17045 130.20384c-4.856787.39134-6.475715.5309-12.141954.41869 0-3.04313-13.819154-9.28125-8.904096-9.28125 4.915065 0 21.04605 5.81941 21.04605 8.86256z" fill="#eeeeec" opacity=".637405"/>
            <path d="m-33.255956 130.93098c-3.872473.64342-5.163298.87289-9.681173.6884 0-5.00332-11.018456-15.25962-7.099523-15.25962 3.918942 0 16.780696 9.5679 16.780696 14.57122z" fill="#eeeeec" opacity=".637405"/>
            <path d="m-33.255956 131.09989c-3.013274.49853-4.0177.67632-7.533179.53338 0-3.87663-8.573754-11.82334-5.524328-11.82334 3.049433 0 13.057507 7.41333 13.057507 11.28996z" fill="#eeeeec" opacity=".583969"/>
          </g>
          <path d="m-33.255956 131.25048c-1.933069.36935-2.577426.50107-4.832667.39517 0-2.8721-5.500215-8.75962-3.543954-8.75962 1.956265 0 8.376621 5.49235 8.376621 8.36445z" fill="url(#radialGradient15777)" opacity=".740458"/>
          <path d="m-34.632558 130.94786c-4.560787.50607-6.081056.68654-11.401959.54144 0-3.93512-12.976954-12.00174-8.361445-12.00174 4.615522 0 19.763404 7.52518 19.763404 11.4603z" fill="url(#linearGradient15779)" opacity=".530534"/>
          <path d="m-30.058993 130.12299c-3.451046.26996-4.601394.36623-8.627606.28882 0-2.09923-9.819359-6.40243-6.326909-6.40243 3.492457 0 14.954515 4.01437 14.954515 6.11361z" fill="#a4c0e4" fill-opacity=".988235" opacity=".637405"/>
          <path d="m-31.927449 130.60162c3.905763.44474 5.207688.60335 9.764398.47584 0-3.45831 11.11318-10.54747 7.160559-10.54747-3.952628 0-16.924957 6.61334-16.924957 10.07163z" fill="url(#radialGradient15781)"/>
          <path d="m-26.11335 130.62459c5.744259.58749 7.65902.79702 14.36066.62857 0-4.56841 16.344313-13.93321 10.531131-13.93321-5.813201 0-24.891791 8.73623-24.891791 13.30464z" fill="url(#linearGradient15783)" opacity=".278626"/>
          <path d="m-23.411767 130.6454c1.912003.40718 2.549337.55241 4.780002.43566 0-3.16632 5.440275-9.65693 3.505332-9.65693-1.934945 0-8.285334 6.05495-8.285334 9.22127z" fill="#eeeeec" fill-opacity=".988235" opacity=".637405"/>
          <path d="m-20.612749 129.72294c2.170878.55754 2.894502.75637 5.427185.59652 0-4.33549 6.176859-13.22281 3.979937-13.22281-2.196925 0-9.407122 8.29079-9.407122 12.62629z" fill="url(#radialGradient15785)"/>
          <path d="m-16.064904 130.22137c3.260216.55177 4.346959.74855 8.150537.59034 0-4.29053 9.276395-13.08567 5.977066-13.08567-3.299344 0-14.127603 8.20481-14.127603 12.49533z" fill="#eeeeec" fill-opacity=".988235" opacity=".71374"/>
          <path d="m-17.707891 129.97383c4.856787.39134 6.475715.5309 12.141954.41869 0-3.04313 13.819154-9.28125 8.904096-9.28125-4.915065 0-21.04605 5.81941-21.04605 8.86256z" fill="#eeeeec" fill-opacity=".988235" opacity=".637405"/>
          <path d="m-13.622385 130.70097c3.872473.64342 5.163298.87289 9.681173.6884 0-5.00332 11.018456-15.25962 7.099523-15.25962-3.91894201 0-16.780696 9.5679-16.780696 14.57122z" fill="#eeeeec" fill-opacity=".988235" opacity=".637405"/>
          <path d="m-13.622385 130.86988c3.013274.49853 4.0177.67632 7.533179.53338 0-3.87663 8.573754-11.82334 5.52432799-11.82334-3.04943299 0-13.05750699 7.41333-13.05750699 11.28996z" fill="#eeeeec" fill-opacity=".988235" opacity=".583969"/>
          <path d="m-13.622385 131.02047c1.933069.36935 2.577426.50107 4.832667.39517 0-2.8721 5.500215-8.75962 3.543954-8.75962-1.956265 0-8.376621 5.49235-8.376621 8.36445z" fill="url(#radialGradient15787)" opacity=".740458"/>
          <path d="m-12.245783 130.71785c4.560787.50607 6.081056.68654 11.40195899.54144 0-3.93512 12.97695401-12.00174 8.36144501-12.00174-4.615522 0-19.763404 7.52518-19.763404 11.4603z" fill="url(#linearGradient15789)" opacity=".530534"/>
          <path d="m-16.819348 129.89298c3.451046.26996 4.601394.36623 8.627606.28882 0-2.09923 9.819359-6.40243 6.326909-6.40243-3.492457 0-14.954515 4.01437-14.954515 6.11361z" fill="#a4c0e4" fill-opacity=".988235" opacity=".637405"/>
        </g>
        <g opacity=".5" transform="matrix(.2522133 0 0 .8347638 -44.941091 -76.051004)">
          <path d="m-14.950892 130.83163c-3.905763.44474-5.207688.60335-9.764398.47584 0-3.45831-11.11318-10.54747-7.160559-10.54747 3.952628 0 16.924957 6.61334 16.924957 10.07163z" fill="url(#radialGradient15771)"/>
          <path d="m-.41093 131.23659c-13.226912.36348-17.635898.49311-33.067299.38889 0-2.82649-37.634924-8.62052-24.249311-8.62052 13.385655 0 57.31661 5.40513 57.31661 8.23163z" fill="#a4c0e4" fill-opacity=".988235"/>
          <path d="m-20.764991 130.8546c-5.744259.58749-7.65902.79702-14.36066.62857 0-4.56841-16.344313-13.93321-10.531131-13.93321 5.813201 0 24.891791 8.73623 24.891791 13.30464z" fill="url(#linearGradient15773)" opacity=".278626"/>
          <path d="m-23.466574 130.87541c-1.912003.40718-2.549337.55241-4.780002.43566 0-3.16632-5.440275-9.65693-3.505332-9.65693 1.934945 0 8.285334 6.05495 8.285334 9.22127z" fill="#eeeeec" fill-opacity=".988235" opacity=".637405"/>
          <path d="m-26.265592 129.95295c-2.170878.55754-2.894502.75637-5.427185.59652 0-4.33549-6.176859-13.22281-3.979937-13.22281 2.196925 0 9.407122 8.29079 9.407122 12.62629z" fill="url(#radialGradient15775)"/>
          <g fill-opacity=".988235">
            <path d="m-30.813437 130.45138c-3.260216.55177-4.346959.74855-8.150537.59034 0-4.29053-9.276395-13.08567-5.977066-13.08567 3.299344 0 14.127603 8.20481 14.127603 12.49533z" fill="#eeeeec" opacity=".71374"/>
            <path d="m-29.17045 130.20384c-4.856787.39134-6.475715.5309-12.141954.41869 0-3.04313-13.819154-9.28125-8.904096-9.28125 4.915065 0 21.04605 5.81941 21.04605 8.86256z" fill="#eeeeec" opacity=".637405"/>
            <path d="m-33.255956 130.93098c-3.872473.64342-5.163298.87289-9.681173.6884 0-5.00332-11.018456-15.25962-7.099523-15.25962 3.918942 0 16.780696 9.5679 16.780696 14.57122z" fill="#eeeeec" opacity=".637405"/>
            <path d="m-33.255956 131.09989c-3.013274.49853-4.0177.67632-7.533179.53338 0-3.87663-8.573754-11.82334-5.524328-11.82334 3.049433 0 13.057507 7.41333 13.057507 11.28996z" fill="#eeeeec" opacity=".583969"/>
          </g>
          <path d="m-33.255956 131.25048c-1.933069.36935-2.577426.50107-4.832667.39517 0-2.8721-5.500215-8.75962-3.543954-8.75962 1.956265 0 8.376621 5.49235 8.376621 8.36445z" fill="url(#radialGradient15777)" opacity=".740458"/>
          <path d="m-34.632558 130.94786c-4.560787.50607-6.081056.68654-11.401959.54144 0-3.93512-12.976954-12.00174-8.361445-12.00174 4.615522 0 19.763404 7.52518 19.763404 11.4603z" fill="url(#linearGradient15779)" opacity=".530534"/>
          <path d="m-30.058993 130.12299c-3.451046.26996-4.601394.36623-8.627606.28882 0-2.09923-9.819359-6.40243-6.326909-6.40243 3.492457 0 14.954515 4.01437 14.954515 6.11361z" fill="#a4c0e4" fill-opacity=".988235" opacity=".637405"/>
          <path d="m-31.927449 130.60162c3.905763.44474 5.207688.60335 9.764398.47584 0-3.45831 11.11318-10.54747 7.160559-10.54747-3.952628 0-16.924957 6.61334-16.924957 10.07163z" fill="url(#radialGradient15781)"/>
          <path d="m-26.11335 130.62459c5.744259.58749 7.65902.79702 14.36066.62857 0-4.56841 16.344313-13.93321 10.531131-13.93321-5.813201 0-24.891791 8.73623-24.891791 13.30464z" fill="url(#linearGradient15783)" opacity=".278626"/>
          <path d="m-23.411767 130.6454c1.912003.40718 2.549337.55241 4.780002.43566 0-3.16632 5.440275-9.65693 3.505332-9.65693-1.934945 0-8.285334 6.05495-8.285334 9.22127z" fill="#eeeeec" fill-opacity=".988235" opacity=".637405"/>
          <path d="m-20.612749 129.72294c2.170878.55754 2.894502.75637 5.427185.59652 0-4.33549 6.176859-13.22281 3.979937-13.22281-2.196925 0-9.407122 8.29079-9.407122 12.62629z" fill="url(#radialGradient15785)"/>
          <path d="m-16.064904 130.22137c3.260216.55177 4.346959.74855 8.150537.59034 0-4.29053 9.276395-13.08567 5.977066-13.08567-3.299344 0-14.127603 8.20481-14.127603 12.49533z" fill="#eeeeec" fill-opacity=".988235" opacity=".71374"/>
          <path d="m-17.707891 129.97383c4.856787.39134 6.475715.5309 12.141954.41869 0-3.04313 13.819154-9.28125 8.904096-9.28125-4.915065 0-21.04605 5.81941-21.04605 8.86256z" fill="#eeeeec" fill-opacity=".988235" opacity=".637405"/>
          <path d="m-13.622385 130.70097c3.872473.64342 5.163298.87289 9.681173.6884 0-5.00332 11.018456-15.25962 7.099523-15.25962-3.91894201 0-16.780696 9.5679-16.780696 14.57122z" fill="#eeeeec" fill-opacity=".988235" opacity=".637405"/>
          <path d="m-13.622385 130.86988c3.013274.49853 4.0177.67632 7.533179.53338 0-3.87663 8.573754-11.82334 5.52432799-11.82334-3.04943299 0-13.05750699 7.41333-13.05750699 11.28996z" fill="#eeeeec" fill-opacity=".988235" opacity=".583969"/>
          <path d="m-13.622385 131.02047c1.933069.36935 2.577426.50107 4.832667.39517 0-2.8721 5.500215-8.75962 3.543954-8.75962-1.956265 0-8.376621 5.49235-8.376621 8.36445z" fill="url(#radialGradient15787)" opacity=".740458"/>
          <path d="m-12.245783 130.71785c4.560787.50607 6.081056.68654 11.40195899.54144 0-3.93512 12.97695401-12.00174 8.36144501-12.00174-4.615522 0-19.763404 7.52518-19.763404 11.4603z" fill="url(#linearGradient15789)" opacity=".530534"/>
          <path d="m-16.819348 129.89298c3.451046.26996 4.601394.36623 8.627606.28882 0-2.09923 9.819359-6.40243 6.326909-6.40243-3.492457 0-14.954515 4.01437-14.954515 6.11361z" fill="#a4c0e4" fill-opacity=".988235" opacity=".637405"/>
        </g>
      </g>
    </g>
  </g>
</svg>
