<svg height="48" width="48" xmlns="http://www.w3.org/2000/svg" xmlns:xlink="http://www.w3.org/1999/xlink"><linearGradient id="a" gradientUnits="userSpaceOnUse" x1="401.543411" x2="418.578411" y1="505.200589" y2="540.872589"><stop offset="0" stop-color="#e0e5e7"/><stop offset="1" stop-color="#c6cdd1"/></linearGradient><linearGradient id="b" gradientTransform="matrix(.81818154 0 0 .90909122 388.48052 501.97981)" gradientUnits="userSpaceOnUse" x1="402.498" x2="413.946" y1="513.937" y2="530.946"><stop offset="0" stop-color="#334545"/><stop offset="1" stop-color="#172525"/></linearGradient><linearGradient id="c" gradientUnits="userSpaceOnUse" x1="18.389" x2="35.068" y1="16.532" y2="33.212"><stop offset="0"/><stop offset="1" stop-opacity="0"/></linearGradient><g transform="translate(-384.57143 -499.798)"><rect fill="url(#a)" height="40" rx="20" stroke-opacity=".550265" stroke-width="2.8" width="40" x="388.57" y="503.8"/><path d="m412.57143 522.798v2h15.92251c.048-.32999.0775-.663.0775-1s-.0295-.67001-.0775-1z" fill="#3bb566"/><g transform="translate(384.57143 499.798)"><path d="m4.3964844 28c.1369786.680046.3099896 1.347237.5136718 2h15.0117188c.048-.32999.078125-.663.078125-1s-.030125-.67001-.078125-1z" fill="#3bb566"/><path d="m4.9101562 18c-.2036822.652763-.3766932 1.319954-.5136718 2h15.5253906c.048-.32999.078125-.663.078125-1s-.030125-.67001-.078125-1z" fill="#e05e4c"/><path d="m20.294922 15.275391-.445313 12.330078-2.769531 6.402343 9.785156 9.785157c7.374018-1.049253 13.406887-6.096646 15.894532-12.886719l-11.101563-11.101562z" fill="url(#c)" opacity=".3"/></g><path d="m401.57143 533.798c2.674-8 2.674-12 0-20 12.46173 0 18 9.99999 18 9.99999s-5.53827 10.00001-18 10.00001z" fill="url(#b)"/><path d="m4.0117188 23.5c-.0040718.166859-.0117188.332126-.0117188.5 0 11.079992 8.920008 20 20 20s20-8.920008 20-20c0-.167874-.007647-.333141-.011719-.5-.264182 10.846571-9.075846 19.5-19.988281 19.5s-19.7240993-8.653429-19.9882812-19.5z" opacity=".15" stroke-opacity=".550265" stroke-width="2.8" transform="translate(384.57143 499.798)"/></g></svg>