<svg xmlns="http://www.w3.org/2000/svg" width="900" height="900"><g fill-opacity="0"><g fill="none" stroke-width=".3"><use href="#B" stroke="#000" stroke-opacity="0"/><path d="M727.973 400.63a28.75 28.75 0 0 0-1-4 28.75 28.75 0 0 0 1 4z" stroke="#707070" stroke-opacity=".38"/></g><use href="#B"/></g><path d="M118.633 763.72l601.13-391.49c-26.422-53.366-56.715-80.114-92.698-120.28l-508.44 511.77z" fill="#039687"/><path d="M118.63 763.71c325.95 299.33 790.55-47.299 600.93-391.91L118.63 763.71zM530.77 40.224C466 39.651 406 56.137 354.21 84.796 168.42 52.704 47.73 104.507 77.56 121.874c49.515 28.836 113.75 38.783 142.69 91.834-70.909 117.25-74.142 274.54 37.463 408.87l506.18-508.12c-80.33-51.139-159.75-73.585-233.12-74.234z" fill="#292726"/><path d="M130.973 744.63c4.19-3.58 3.85-3.85 0 0z" fill="#7ac2bc" fill-opacity=".24"/><path d="M472.27 157.06c-19.861 14.619-36.082 32.48-45.095 49.652s-10.079 32.25-2.963 41.916c14.817 20.127 60.353 11.766 101.71-18.675s62.873-71.437 48.059-91.566-60.353-11.767-101.71 18.674z" fill="#fff"/><defs ><path id="B" d="M-61.5 912.5h1023v-925h-1023v925m640-908c4.73 0 10.01.61 14 1 27.06 0 56.17 6.1 81 15 1.5.54 3.77 1.63 5 2 10.98 2.24 21.69 6.85 32 11 1.82.73 3.5 2.31 5 3 18.15 6.7 35.67 17.24 52 28 2.84 1.87 5.43 4.23 8 6 3.57 1.97 6.8 4.48 10 7 6.95 5.49 15.86 10.63 21 18 .4.2 1 0 1 0 4.56 2.23 16.38 13.33 15 17-1.17 3.13-5.63 5.98-8 8-5.52 5.52-10.6 12.52-17 17-.2.4 0 1 0 1-35.03 31.44-68.28 67.96-100 100-4.32 4.36-9.78 9.62-13.75 14.25-3.97 4.62-12.94 9.62-13.25 15.75.38 1.77 7.54 7.34 9 9 29.89 33.96 59.95 76.49 72 120 .13.46-.23 1.66 0 2 1.72 2.53 2 5 3 8 2.19 4.84 4.06 10.75 5 16a28.75 28.75 0 0 1 1 4c3.16 17.63 10 34.42 10 53 .56 5.83 1.56 12.6 2 19 1.05 15.44 2.05 32.98 0 48v4c0 3.42-.74 7.31-1 10 0 21.43-5.28 44.78-11 65-.52 1.84-2.49 3.55-3 5-1.88 6.83-3.5 13.29-6 20-.51 1.36-1.54 2.89-2 4-7.23 24.76-21 48.3-35 70-1.85 2.87-4.19 5.39-6 8-.66 1.2-1.22 2.71-2 4-1.73 2.88-3.98 4.54-6 7-11.22 17.39-27.11 36.2-43 49-3.2 3.02-5.95 8.03-10 10-.4.2-1 0-1 0-4.93 7.06-13.4 11.36-20 17-2.7 2.31-5.17 3.39-8 5-3.08 2.25-5.68 4.86-9 7-10.44 6.74-20.72 14.08-32 19-1.54.83-3.27 2.11-5 3-3.01 1.54-5.93 2.78-9 4-1.55.77-3.21 2.21-5 3-4.32 1.91-8.57 3.58-13 5-2.99 1.34-5.69 2.91-9 4-17.31 5.69-33.68 12.67-52 15-1.61.33-3.97 1.57-6 2a51.51 51.51 0 0 1-7 1c-3.24.53-7.23 1.9-11 2-.5.01-1.5-.01-2 0-3.91 1.36-7.32 1.91-12 2-5.52.11-10.39 1-16 1-3.08.3-7.25 1-11 1h-29c-3.1 0-6.64-.77-9-1-5.29 0-9.82-.8-15-1-4.84-.18-8.9-1.21-13-2-22.39-2.17-43.91-8.13-65-15-1.88-.61-3.49-.91-5-2-.5.01-1 0-1 0-2.35-.55-4.09-2.25-6-3-18.23-5.01-35.55-14.54-52-24-2.24-1.29-4.59-1.75-6-4-.43-.17-1 0-1 0-5.47-1.97-10.54-6.75-15-10-1.6-.91-3.34-1.91-5-3-1.89-1.25-3.34-2.73-5-4-4.75-2.88-9.48-6.43-14-10-3.23-2.55-6.01-5.43-9-8-1.86-1.28-1.62-1.36-3-3-5.13-4.94-14.41-8.64-18-16-.2-.4 0-1 0-1 1.7-4.7 6.65-7.65 10-11a44.54 44.54 0 0 1 5-5c3.85-3.85 7.33-9.11 12-12 .32-.2.8-.68 1-1 4.29-6.95 12.41-12.3 18-18 1.01-1.22 1.83-2.03 3-3l17-17a90.79 90.79 0 0 1 10-10l11-11c7.87-7.87 15.23-17.16 24-24 .2-.32.68-.8 1-1 5.04-7.49 14.6-16.23 22-22 .2-.32.68-.8 1-1 2.97-3.81 6.72-7.85 10-11 2.97-2.85 6.71-5.06 8-9-.16-1.87-5.64-6.42-7-8-2.37-2.12-4.86-5.49-7-8-3.35-3.92-6.37-7.93-9-12-3.33-4.05-7.11-7.52-10-12-26.7-41.39-48.66-82.03-60-130-.61-2.56-1.29-6.08-2-9-1.85-7.6-3.46-15-4-23-6.11-26.25-5.6-58.16-3-85 0-7.19 1.13-14.1 2-21 .26-2.09.7-4.47 1-6 2.07-21.72 8.33-42.53 15-63 .56-1.71 1.44-3.58 2-5 4.25-14.96 11.42-28.93 18-43 4.35-9.3-9.7-21.91-16-29-2.65-2.14-5.27-4.55-8-7-3.72-3.34-7.26-7.93-11-11-3.53-2.47-7.42-5.18-11-8-4.21-3.32-8.77-7.13-13-10-13.78-7.44-27.36-16.16-42-22-1.35-.54-2.88-1.5-4-2-13.9-4.4-27.95-7.91-42-12-3.32-.97-6.19-2.81-8-6-7.62-13.41 12.98-19.26 22-22 2.55-1.09 5.15-2.95 8-4 5.85-2.16 11.92-4.54 18-6 2.75-.92 5.91-2.17 9-3 1.71-.46 3.19-.65 5-1 1.28-.37 3.43-1.47 5-2 6.94-2.33 13.69-4 21-5 1.59-.34 4.04-1.53 6-2 4.44-1.07 8.25-1.69 13-2 .84-.15 2.69-.79 4-1 13.43-2.19 26.98-5 41-5 3.4-.33 7.92-1 12-1h10c5.62-.54 19.95-3.74 25 0h1c5.39 0 11.36.55 16 1 15.34 0 31.52 2.81 46.07 5.93 14.56 3.11 27.88 7.73 40.16-.7s22.4-12.42 35.77-17.23c1.42-.71 2.03-1.87 4-2 .5-.03 1 0 1 0 1.93-2.7 7.77-3.81 11-5 5.33-1.97 10.49-3.74 16-5 1.32-.44 3.42-1.43 5-2 3.31-1.19 5.46-1.36 9-2 1.38-.39 3.24-1.53 5-2 1.72-.46 3.16-.68 5-1 1.72-.46 3.89-1.52 6-2 7.11-1.63 14.61-3.5 22-4 4.65-.83 9.75-1.51 15-2 6.32-.59 12.29-2 19-2 3.4-.33 7.92-1 12-1h8c6.29-.61 13.77-.6 20 0z"/></defs></svg>
