<svg enable-background="new 0 0 2491 2491" viewBox="0 0 2491 2491" xmlns="http://www.w3.org/2000/svg"><path d="m1245.5 2397.8c636.4 0 1152.3-515.9 1152.3-1152.3s-515.9-1152.3-1152.3-1152.3-1152.3 515.9-1152.3 1152.3 515.9 1152.3 1152.3 1152.3zm0 93.2c-687.9 0-1245.5-557.6-1245.5-1245.5s557.6-1245.5 1245.5-1245.5 1245.5 557.6 1245.5 1245.5-557.6 1245.5-1245.5 1245.5z" fill="#f4815b"/><g clip-rule="evenodd" fill-rule="evenodd"><path d="m2075.7 614.5c-350.3-453.4-1001.7-537-1455.1-186.7-453.3 350.3-536.9 1001.7-186.6 1455 350.2 453.4 1001.6 537.1 1455 186.8 453.4-350.2 537-1001.8 186.7-1455.1z" fill="#ff6c37"/><path d="m1458.8 898.6c-74.7 34.1-196.3 137.2-393.6 333.7l56.1 56.1 18.7 18.8 381.3-381.3c11.9-11.9 27-17.9 42.5-20.6-28.3-21.2-55.5-29.3-105-6.7m168.2 145.5-399.1 350.7c35.5 35.6 55 55 65 65.1 158.1-150 308.6-303 334.1-415.8m-681.7 309.9c.6 1 1.2.9 1.8.8l161.7-34.9-65.5-65.4-97.8 97.7c-.3.2-.8.6-.2 1.8m733.1-541.9 135.3-135.3c-27.3-21.3-60.4-31.8-93.5-31.8-39.1 0-78.2 14.8-107.6 44.3-28.8 28.8-44.6 67-44.6 107.7s15.8 79 44.6 107.8c44.2 44.3 111.1 57 168.5 31.9l-102.6-102.5c-2.9-2.9-4.6-6.9-4.6-11-.1-4.2 1.6-8.1 4.5-11.1" fill="#fff"/><path d="m1823.5 847.4c-2.7 0-5.4-1-7.7-2.8-5-4.2-5.8-11.8-1.5-16.9 9.1-11 10.8-26.3 4.3-39-2.9-5.9-.5-13.1 5.4-16.1 5.9-2.9 13.1-.5 16.1 5.4 10.6 21.2 7.7 46.8-7.5 65-2.2 2.8-5.6 4.4-9.1 4.4m12.8-149.3-124.9 125.1 97.6 97.6c6.8-4.8 13.1-10.2 19.1-16 28.8-28.8 44.6-67.1 44.6-107.8 0-36.6-12.8-71.2-36.4-98.9m-293 249.7-380.2 380.3 43.7 43.7 402.6-353.6c10.1-8.9 15.9-21.3 16.3-34.7.4-13.5-4.6-26.2-14.1-35.8-18.8-18.7-49.4-18.7-68.3.1m-709.4 811.1s.1 0 .2-.1c181.3-90.9 327.8-184.4 435.6-278l-61.5-61.4-161.6 25.1-320 320 102.4 102.4c2.5 2.4 5 1.8 6.7 1 1.7-1 3.5-2.8 2.8-6.2l-17.5-74.9c-2.6-11.2 2.7-22.6 12.9-27.9m-37.1 119.8-92.2-92.2-78.2 78.2c-.3.2-.6.6-.3 1.4.3.9.9 1 1.2 1zm291.2-475.5h.3c.3 0 .9.1 1.2.1l90.9-11.8-40.2-40.4z" fill="#fff"/><path d="m1840.2 778c-2.9-5.9-10.2-8.4-16.2-5.4-5.9 2.9-8.3 10.1-5.4 16.1 6.4 12.7 4.7 28-4.4 39-4.3 5.1-3.5 12.7 1.6 16.9 2.2 1.8 4.9 2.8 7.7 2.8 3.5 0 6.8-1.6 9.2-4.4 15.2-18.2 18.1-43.8 7.5-65" fill="#ff6c37"/></g></svg>