<svg xmlns="http://www.w3.org/2000/svg" viewBox="66.993 897.484 32 32" width="32" height="32" xmlns:v="https://vecta.io/nano"><defs><linearGradient id="A" x1="21.826" y1="913.883" x2="39.966" y2="895.764" gradientUnits="userSpaceOnUse"><stop offset="0" stop-color="#0071ff"/><stop offset="1" stop-color="#00bfe1"/></linearGradient></defs><g transform="translate(52.008 8.736)"><rect width="32" height="32" x="14.985" y="888.748" rx="5" fill="#fff" paint-order="fill markers stroke"/><path fill="url(#A)" d="M40.309 897.816l-2.135 2.122c-.376.337-.557.879-.347 1.337 1.423 2.976.883 6.524-1.451 8.856s-5.887 2.871-8.867 1.449c-.439-.197-.954-.03-1.292.313l-2.17 2.166c-.255.25-.381.602-.34.956a1.15 1.15 0 0 0 .548.854c5.113 3.095 11.679 2.306 15.911-1.912a12.97 12.97 0 0 0 1.955-15.887c-.177-.311-.489-.522-.844-.572s-.713.068-.968.318zm-18.467-2.306a12.97 12.97 0 0 0-2.02 15.885 1.15 1.15 0 0 0 .843.573c.355.05.713-.068.969-.319l2.123-2.109c.385-.337.572-.885.359-1.349-1.423-2.976-.884-6.524 1.451-8.856s5.887-2.871 8.866-1.45c.434.195.942.033 1.281-.3l2.182-2.179a1.15 1.15 0 0 0 .34-.956 1.16 1.16 0 0 0-.548-.854 13.01 13.01 0 0 0-15.893 1.972z"/></g></svg>