<svg xmlns="http://www.w3.org/2000/svg" viewBox="0 0 622 650"><g fill="none" stroke="#81929d" stroke-width="2"><path d="m320.1 261.46-6.35 32.75M306.02 337.21l-6.27 32.5" vector-effect="non-scaling-stroke"/></g><path fill="#02c5e5" d="M106.06 0h85.85l.09 592.51a.49.49 0 0 1-.49.49h-74.95q-13-.01-19.96-.89c-54-6.87-93.81-50.63-96.6-105.17V106.19C3.41 47.69 47.34 2.88 106.06 0Z"/><path fill="#ff5f55" d="M622 163.56v379.75c-2.52 58.98-47.36 103.13-106.06 106.69h-85.85L430 57.49a.48.48.3 0 1 .48-.48q40.93-.02 82.02 0c23.58.01 47.42 8.16 66.22 22.71q40.05 31 43.28 83.84Z"/><path fill="#02c5e5" d="m320.1 261.46-6.35 32.75q-7.46.62-14.9.14a.41.41 7.8 0 0-.44.33l-8.39 42.07a.44.38 4.7 0 0 .45.45l15.55.01-6.27 32.5-15.87.17a.77.62-83.7 0 0-.62.62l-11.23 55.51a.89.44-80.8 0 1-.53.74h-32.75a.56.38-82.4 0 1-.33-.66l11.32-55.84a.49.42 4.8 0 0-.49-.5H230.5a.5.5 0 0 1-.5-.5V338a.75.75 0 0 1 .75-.75h25a.74.64 5.2 0 0 .71-.51l8.54-41.99a.49.39 4.3 0 0-.5-.46l-34 .16a.49.45-.6 0 1-.5-.45v-32a.5.5 0 0 1 .5-.5h40.75a.68.66 5.8 0 0 .66-.52L283.24 205a.62.5-83.1 0 1 .51-.5H316a.51.46 5.1 0 1 .51.55l-11.26 55.7a.46.44-83.5 0 0 .42.55l14.43.16Z"/><path fill="#ff5f55" d="m299.75 369.71 6.27-32.5 15.57-.08a.62.49 4.4 0 0 .59-.4l8.26-41.99a.43.36 4.4 0 0-.44-.43l-16.25-.1 6.35-32.75 16.53.04a.53.51-83.7 0 0 .5-.42l11.08-56.14a.55.55 5.8 0 1 .54-.44H382a.49.42 4.8 0 1 .49.5l-11.43 55.76a.69.62 5.1 0 0 .69.74h18.75a.75.5 90 0 1 .5.75v31.5a.5.5 0 0 1-.5.5h-25.75a.72.65-83.5 0 0-.65.57l-8.54 41.94a.44.41 5.3 0 0 .44.49h34.5a.5.5 0 0 1 .5.5v31.5a.5.5 0 0 1-.5.5h-41.25a.62.51-83.2 0 0-.52.5l-11.34 55.93a.72.64-83.4 0 1-.64.57H305a.64.56-83.7 0 1-.53-.76l10.98-55.5a.63.63 5.6 0 0-.62-.75l-15.08-.03Z"/></svg>