<?xml version="1.0" encoding="utf-8"?>
<!-- Generator: Adobe Illustrator 25.0.0, SVG Export Plug-In . SVG Version: 6.00 Build 0)  -->
<svg version="1.1" id="katman_1" xmlns="http://www.w3.org/2000/svg" xmlns:xlink="http://www.w3.org/1999/xlink" x="0px" y="0px"
	 viewBox="0 0 1024 1024" style="enable-background:new 0 0 1024 1024;" xml:space="preserve">
<style type="text/css">
	.st0{fill:#3A76F0;}
	.st1{fill:#FFFFFF;}
</style>
<path class="st0" d="M28.4,241.6v540.7c0,117.7,95.5,213.2,213.2,213.2h540.7c117.7,0,213.2-95.5,213.2-213.2V241.6
	c0-117.7-95.5-213.2-213.2-213.2H241.6C123.9,28.4,28.4,123.9,28.4,241.6z"/>
<g>
	<path class="st1" d="M430.1,180.9l7.7,31c-30.2,7.4-59.1,19.4-85.7,35.4L335.7,220C365,202.3,396.9,189.1,430.1,180.9z
		 M593.9,180.9l-7.7,31c30.2,7.4,59.1,19.4,85.7,35.4l16.5-27.4C659,202.3,627.2,189.1,593.9,180.9L593.9,180.9z M220,335.7
		c-17.7,29.3-30.9,61.2-39.1,94.4l31,7.7c7.4-30.2,19.4-59.1,35.4-85.7L220,335.7z M202.9,512c0-15.5,1.1-31,3.5-46.3l-31.6-4.8
		c-5.1,33.9-5.1,68.3,0,102.2l31.6-4.8C204.1,543,202.9,527.5,202.9,512L202.9,512z M688.3,804l-16.4-27.4
		c-26.6,16.1-55.4,28-85.6,35.4l7.7,31C627.2,834.8,659,821.7,688.3,804L688.3,804z M821.1,512c0,15.5-1.1,31-3.5,46.3l31.6,4.8
		c5.1-33.9,5.1-68.3,0-102.2l-31.6,4.8C819.9,481,821.1,496.5,821.1,512z M843.1,593.8l-31-7.7c-7.4,30.2-19.4,59.1-35.4,85.7
		l27.4,16.5C821.7,659,834.9,627.1,843.1,593.8L843.1,593.8z M558.3,817.6c-30.7,4.6-61.9,4.6-92.6,0l-4.8,31.6
		c33.9,5.1,68.3,5.1,102.2,0L558.3,817.6z M760.8,695.3c-18.4,25-40.5,47-65.5,65.4l19,25.7c27.6-20.3,51.9-44.5,72.3-72
		L760.8,695.3z M695.3,263.2c25,18.4,47.1,40.5,65.5,65.5l25.7-19.2c-20.3-27.5-44.6-51.8-72-72L695.3,263.2z M263.2,328.7
		c18.4-25,40.5-47.1,65.5-65.5l-19.2-25.7c-27.5,20.3-51.8,44.6-72,72L263.2,328.7z M804,335.7l-27.4,16.4
		c16.1,26.6,28,55.4,35.4,85.6l31-7.7C834.9,396.8,821.7,365,804,335.7L804,335.7z M465.7,206.4c30.7-4.6,61.9-4.6,92.6,0l4.8-31.6
		c-33.9-5.1-68.3-5.1-102.2,0L465.7,206.4z M279.6,795l-66,15.4l15.4-66l-31.1-7.3l-15.4,66c-2.5,10.8,0.7,22.1,8.5,29.9
		s19.1,11,29.9,8.5l66-15.1L279.6,795z M204.5,708.5l31.1,7.2l10.7-45.8c-15.5-26.1-27.1-54.4-34.4-83.9l-31,7.7
		c7,28.3,17.5,55.5,31.4,81L204.5,708.5z M353.7,777.8L308,788.5l7.2,31.1l33.7-7.8c25.6,13.9,52.8,24.5,81.1,31.4l7.7-31
		c-29.4-7.3-57.6-19-83.7-34.6L353.7,777.8z M512,234.9c-100.8,0.1-193.7,54.9-242.4,143.1s-45.7,196,8,281.4l-26.6,113.7
		l113.7-26.6c99.7,62.8,228.2,55.7,320.4-17.7s127.8-197.1,88.9-308.3C734.8,309.2,629.8,234.8,512,234.9z"/>
</g>
<path class="st0" d="M0,0"/>
</svg>
