<svg xmlns="http://www.w3.org/2000/svg" viewBox="0 0 1024 1024" xmlns:v="https://vecta.io/nano"><linearGradient id="A" x1="260.967" x2="919.184" y1="871.181" y2="491.16" gradientUnits="userSpaceOnUse"><stop offset="0" stop-color="#669abd"/><stop offset="1" stop-color="#77dbdb"/></linearGradient><use href="#I" fill="url(#A)"/><linearGradient id="B" x1="553.505" x2="626.647" y1="617.828" y2="744.513" gradientUnits="userSpaceOnUse"><stop offset=".559" stop-opacity="0"/><stop offset="1"/></linearGradient><use href="#I" opacity=".16" fill="url(#B)"/><linearGradient id="C" x1="114.663" x2="334.091" y1="744.528" y2="871.214" gradientUnits="userSpaceOnUse"><stop offset="0" stop-color="#6a8fad"/><stop offset="1" stop-color="#669abd"/></linearGradient><use href="#J" fill="url(#C)"/><linearGradient id="D" x1="260.948" x2="187.806" y1="744.528" y2="871.213" gradientUnits="userSpaceOnUse"><stop offset=".559" stop-opacity="0"/><stop offset="1"/></linearGradient><use href="#J" opacity=".16" fill="url(#D)"/><linearGradient id="E" x1="114.663" x2="553.503" y1="237.793" y2="491.157" gradientUnits="userSpaceOnUse"><stop offset="0" stop-color="#6a8fad"/><stop offset="1" stop-color="#669abd"/></linearGradient><use href="#K" fill="url(#E)"/><linearGradient id="F" x1="370.656" x2="297.509" y1="301.128" y2="427.822" gradientUnits="userSpaceOnUse"><stop offset=".559" stop-opacity="0"/><stop offset="1"/></linearGradient><use href="#K" opacity=".15" fill="url(#F)"/><linearGradient id="G" x1="78.091" x2="736.337" y1="554.498" y2="174.459" gradientUnits="userSpaceOnUse"><stop offset="0" stop-color="#ccecff"/><stop offset="1" stop-color="#9feced"/></linearGradient><path d="M297.51 765.64l-146.28-84.46 438.85-253.37-438.85-253.36L297.5 90l585.11 337.82z" fill="url(#G)"/><defs ><path id="I" d="M297.54 934.52l585.06-337.8.01-168.9-585.07 337.83z"/><path id="J" d="M151.23 681.18l-.01 168.91 146.32 84.43V765.65z"/><path id="K" d="M151.23 174.45l-.02 168.91 292.58 168.91 146.29-84.46z"/></defs></svg>