<svg xmlns="http://www.w3.org/2000/svg" xmlns:xlink="http://www.w3.org/1999/xlink" width="500" height="500" fill="none"><path d="M374.99 33.513 125.01 466.492a249.98 249.98 0 0 0 341.478-91.5A249.98 249.98 0 0 0 374.99 33.513Z" style="fill:url(#a);stroke:none;stroke-width:3.58299;stroke-linecap:round;stroke-linejoin:round;paint-order:stroke markers fill;fill-opacity:1"/><path d="M374.988 33.512a249.98 249.98 0 0 0-341.478 91.5 249.98 249.98 0 0 0 91.498 341.479 249.98 249.98 0 0 0 .035.018l249.98-432.977a249.98 249.98 0 0 0-.035-.02z" style="fill:url(#b);stroke:none;stroke-width:3.58299;stroke-linecap:round;stroke-linejoin:round;paint-order:stroke markers fill;fill-opacity:1"/><path fill="url(#c)" fill-rule="evenodd" d="M364.271 472.415a249.84 249.84 0 0 0 20.786-11.998L135.743 27.608a249.655 249.655 0 0 0-20.781 12.008z" clip-path="url(#d)" clip-rule="evenodd" style="fill:#fff" transform="matrix(-1 0 0 1 500.019 0)"/><path fill="#fff" d="M124.998 250.002c0 69.035 55.966 125.001 125.001 125.001 69.036 0 125.002-55.966 125.002-125.001s-55.966-125.001-125.002-125.001c-69.035 0-125.001 55.966-125.001 125.001z" clip-path="url(#e)"/><path fill="url(#f)" d="M148.435 250.002c0 56.091 45.473 101.563 101.564 101.563 56.092 0 101.564-45.472 101.564-101.563s-45.472-101.564-101.564-101.564c-56.091 0-101.564 45.473-101.564 101.564" clip-path="url(#h)" style="fill:url(#g);fill-opacity:1"/><defs><linearGradient id="k"><stop offset="0" style="stop-color:red;stop-opacity:1"/><stop offset="1" style="stop-color:#f66;stop-opacity:1"/></linearGradient><linearGradient xlink:href="#k" id="a" x1="135.748" x2="385.044" y1="472.415" y2="39.638" gradientUnits="userSpaceOnUse"/><linearGradient id="i"><stop offset=".5" style="stop-color:#bf0000;stop-opacity:1"/><stop offset="1" style="stop-color:red;stop-opacity:1"/></linearGradient><linearGradient id="f" x1="248.965" x2="250.001" y1="148.825" y2="351.565" gradientTransform="matrix(-1 0 0 1 500 0)" gradientUnits="userSpaceOnUse"><stop stop-color="#0C0D0F"/><stop offset="1" stop-color="#101113"/></linearGradient><linearGradient id="c" x1="248.613" x2="252.348" y1="28.454" y2="472.396" gradientTransform="matrix(-1 0 0 1 500 0)" gradientUnits="userSpaceOnUse"><stop stop-color="#0C0D0F"/><stop offset="1" stop-color="#101113"/></linearGradient><linearGradient id="j"><stop offset="0" style="stop-color:maroon;stop-opacity:1"/><stop offset="1" style="stop-color:#300;stop-opacity:1"/></linearGradient><linearGradient xlink:href="#j" id="b" x1="364.248" x2="114.962" y1="27.657" y2="460.417" gradientUnits="userSpaceOnUse"/><linearGradient xlink:href="#i" id="g" x1="148.435" x2="351.565" y1="351.565" y2="148.435" gradientUnits="userSpaceOnUse"/><clipPath id="e" clipPathUnits="userSpaceOnUse"/><clipPath id="h" clipPathUnits="userSpaceOnUse"/><clipPath id="d" clipPathUnits="userSpaceOnUse"/></defs></svg>