<svg height="48pt" viewBox="0 0 48 48" width="48pt" xmlns="http://www.w3.org/2000/svg" xmlns:xlink="http://www.w3.org/1999/xlink"><linearGradient id="a"><stop offset="0" stop-color="#00c4ff"/><stop offset=".83888397938" stop-color="#0072ff"/></linearGradient><linearGradient id="b" gradientTransform="matrix(28.329 0 0 30.007 9.835 8.997)" gradientUnits="userSpaceOnUse" x1="0" x2=".907488" xlink:href="#a" y1=".5" y2=".920078"/><linearGradient id="c" gradientTransform="scale(48 47.7)" gradientUnits="userSpaceOnUse" x1="0" x2=".907488" xlink:href="#a" y1=".5" y2=".920078"/><path d="m28.12 9.516c.197-.311.55-.518.92-.519.519-.002 1.012.29 1.313.705.283.396.37.898.371 1.377-.005.673-.16 1.335-.345 1.979-.462 1.52-1.089 2.984-1.558 4.503-.516 1.723-.763 3.644-.07 5.355.362-1.012.721-2.026 1.082-3.039.103-.268.238-.572.525-.682.399-.142.806.275.795.661-.109.562-.321 1.097-.488 1.644-1.351 4.062-2.865 8.067-4.322 12.092 1.938-1.771 3.882-3.537 5.822-5.305.559-.509 1.164-1.063 1.335-1.831.171-.754-.146-1.502-.506-2.15-.416-.773-.946-1.507-1.141-2.377-.099-.45-.069-.969.235-1.338.219-.277.617-.421.954-.285.332.127.533.446.69.747.527 1.058.856 2.214.969 3.39.36-.726.724-1.45 1.085-2.175.217-.428.41-.887.764-1.225.213-.21.524-.343.825-.274.377.083.642.426.743.783.115.378-.006.773-.128 1.132-.364 1.007-.935 1.917-1.486 2.828-.767 1.206-1.583 2.384-2.473 3.504.509-.34 1.045-.698 1.668-.769.589-.079 1.24.266 1.435.842.131.391-.08.834-.435 1.026-.52.29-1.136.286-1.715.312-2.098.057-4.143 1.091-5.445 2.735-1.027 1.312-1.552 2.941-2.595 4.242-.658.793-1.587 1.788-2.609 1.568-1.361-.292-1.361-2.42-1.701-3.475-.175-.532-.503-1.017-.959-1.349-.398-.294-.875-.463-1.357-.555-1.106-.213-2.247-.1-3.351-.328-.552-.113-1.096-.334-1.518-.716-.402-.353-.68-.825-.872-1.32-.417-1.076-.501-2.244-.871-3.335-.535-1.569-1.593-2.956-2.972-3.878-.291-.196-.607-.388-.795-.694-.153-.239-.14-.579.061-.787.338-.368.948-.399 1.339-.094.8.567.915 1.67 1.661 2.287.001-1.019-.004-2.036-.006-3.054.003-.294-.03-.611.117-.878.134-.254.504-.322.719-.132.291.243.38.641.421 1.001.145 1.403.284 2.806.43 4.21.73-.657 1.066-1.722.83-2.678-.072-.305-.188-.619-.122-.936.053-.265.335-.452.601-.405.298.041.512.297.623.56.179.435.179.92.143 1.383-.106 1.054-.552 2.027-.859 3.03-.3.885-.506 1.869-.206 2.783.268.855.946 1.531 1.742 1.914.983.483 2.09.633 3.173.675-.658-1.152-1.374-2.371-1.362-3.742.013-1.38.89-2.542 1.127-3.874.404-2.21-.593-4.612-2.449-5.88-.825-.566-1.815-.818-2.662-1.344-.766-.469-1.454-1.304-1.334-2.254.582-.226 1.232-.082 1.757.221 1.027.548 1.681 1.587 2.712 2.126.363.198.778.296 1.191.27.224-.535 0-1.136-.36-1.553-.679-.817-1.824-1.016-2.533-1.797-.356-.408-.554-.99-.405-1.524.122-.421.558-.708.992-.676.643.04 1.197.443 1.636.886 1.455 1.454 2.292 3.431 2.62 5.44.388 2.371.086 4.789-.391 7.123-.089.475-.256.963-.133 1.448.053.225.216.457.464.477.343.022.626-.211.875-.415.78-.637 1.4-1.495 1.656-2.477.199-.716.205-1.466.191-2.203.004-.369-.023-.776.197-1.095.158-.247.452-.441.754-.369.237.045.405.251.478.471.116.362.099.754.028 1.124-.223 1.021-.424 2.056-.828 3.025-.285.696-.67 1.358-1.192 1.903-.575.609-1.285 1.098-1.748 1.808-.316.485-.52 1.088-.383 1.668.1.462.452.84.876 1.032.619.283 1.37.268 1.972-.05.479-.258.819-.705 1.089-1.165.477-.826.766-1.744 1.006-2.662.369-1.484.586-3.005.671-4.531.098-1.631-.198-3.316-1.02-4.741-.437-.762-1.055-1.411-1.777-1.908-.65-.484-1.364-.902-1.892-1.529-.493-.58-.834-1.363-.655-2.133.338-.212.763-.249 1.137-.117.705.24 1.257.806 1.613 1.447.483.754.886 1.653 1.738 2.062-.693-1.363-1.407-2.714-2.109-4.072-.228-.459-.453-.96-.393-1.485.043-.4.415-.728.816-.726.356.001.69.201.902.481.242.314.358.701.467 1.077.559 1.945 1.117 3.889 1.678 5.833.705-1.342 1.003-2.898.803-4.405-.088-.799-.323-1.57-.509-2.35-.126-.51-.088-1.081.203-1.53z" fill="url(#b)"/><path d="m18.81 43.32c1.065.287 1.697 1.385 1.41 2.45-.287 1.065-1.385 1.697-2.45 1.41-5.1-1.37-9.61-4.39-12.82-8.58s-4.95-9.32-4.95-14.6c0-6.36 2.53-12.47 7.03-16.97s10.61-7.03 16.97-7.03 12.47 2.53 16.97 7.03 7.03 10.61 7.03 16.97c0 5.26-1.73 10.37-4.91 14.55-3.19 4.18-7.66 7.2-12.73 8.6-1.065.293-2.167-.335-2.46-1.4-.293-1.065.335-2.167 1.4-2.46 4.22-1.16 7.95-3.68 10.61-7.16 2.65-3.49 4.09-7.75 4.09-12.13 0-5.3-2.11-10.39-5.86-14.14s-8.84-5.86-14.14-5.86-10.39 2.11-14.14 5.86-5.86 8.84-5.86 14.14c0 4.4 1.45 8.68 4.13 12.17 2.67 3.49 6.43 6.01 10.68 7.15z" fill="url(#c)"/></svg>