<svg width="573.758" height="573.375" viewBox="0 0 430.319 430.032" xmlns="http://www.w3.org/2000/svg"><path d="M86.458.465C88.452.3 90.436.038 92.434.005 174.07 0 255.706.01 337.347 0c19.2.65 38.129 7.271 53.574 18.706 21.559 15.74 36.216 40.735 38.884 67.349.512 3.773.46 7.59.48 11.391.008 78.627.013 157.259.023 235.885.323 20.444-6.503 40.82-18.607 57.248-15.71 21.53-40.62 36.193-67.182 38.946-5.05.688-10.158.441-15.237.498H119.466c-9.636-.038-19.271.08-28.902-.07-16.053-.95-31.826-6.072-45.406-14.668-14.67-9.26-26.813-22.503-34.707-37.958C3.39 363.505-.366 347.937.028 332.401c.038-80.055.01-160.11.024-240.166.636-15.75 5.297-31.304 13.366-44.841 9.303-15.701 23.125-28.683 39.397-36.952A95.776 95.776 0 0 1 86.458.465z" style="fill:#fe4f4b;fill-rule:evenodd"/><path d="M59.047 112.479c-4.922 3.802-6.859 11.102-4.049 16.732 30.52 65.042 60.984 130.112 91.47 195.173 1.857 4.267 4.657 8.359 8.787 10.704 5.164 3.085 11.909 3.232 17.21.389 3.565-1.813 6.276-4.937 8.14-8.43 29.99-55.654 59.808-111.397 89.63-167.14 1.576-3.024 4.737-5.374 8.235-5.34 10.3-.005 20.6-.005 30.9-.005 1.163.005 2.606.232 3.228 1.357.684 1.177.247 2.616-.27 3.77-15.208 32.608-30.402 65.217-45.615 97.82-.517 1.05-1.262 2.122-2.459 2.445-1.41-.213-2.078-1.57-2.691-2.686-5.287-9.963-10.703-19.86-15.924-29.861-8.269 15.146-16.262 30.44-24.44 45.638 9.706 17.947 19.318 35.946 28.996 53.907 1.059 1.894 2.222 3.764 3.798 5.283 4.067 4.186 10.29 6.118 16.01 4.955 4.737-.883 9.008-3.826 11.624-7.855 1.894-2.706 2.995-5.843 4.457-8.777 21.24-45.534 42.472-91.072 63.718-136.6 8.387-18.128 16.997-36.146 25.346-54.292 1.22-2.326 1.68-4.979 1.42-7.585-.546-6.977-7.05-12.854-14.055-12.66-34.493.01-68.986-.051-103.48.025-4.053-.204-8.168 1.13-11.244 3.792-2.972 2.445-4.495 6.071-6.332 9.346a137870.725 137870.725 0 0 0-72.912 135.367c-.465.86-1.106 1.68-2.04 2.055-1.458-.005-2.346-1.424-2.92-2.586-15.142-32.481-30.283-64.967-45.43-97.442-.54-1.23-1.086-2.701-.37-3.973.57-1.13 1.947-1.453 3.11-1.439 10.603 0 21.207-.014 31.81.01 3.75.053 6.912 2.82 8.378 6.128 5.454 10.205 10.927 20.396 16.395 30.592 2.615 4.741 4.993 9.63 7.77 14.277a7267.132 7267.132 0 0 1 24.388-45.234c-7.096-13.376-14.283-26.7-21.402-40.061-1.154-1.98-2.136-4.101-3.731-5.777-2.99-3.28-7.414-5.254-11.862-5.088-34.972.014-69.94.005-104.908.014-3.142-.062-6.228 1.135-8.686 3.052z" style="fill:#fff;fill-rule:evenodd"/></svg>