<svg xmlns="http://www.w3.org/2000/svg" width="48" height="48" xmlns:v="https://vecta.io/nano"><style><![CDATA[.B{stroke-linejoin:round}.C{stroke:#8c0000}.D{fill:#ac0000}.E{stroke:#a40000}.F{stroke-width:2}.G{fill-rule:evenodd}]]></style><defs><linearGradient id="A" href="#L"><stop offset="0" stop-color="#555753"/><stop offset="1" stop-color="#555753" stop-opacity="0"/></linearGradient><radialGradient id="B" cx="14.51" cy="48.47" fx="14.51" fy="48.47" r="4.672" gradientTransform="matrix(0.97196324,0.04893113,-0.14264374,2.8334611,6.6642326,-90.371694)" href="#L"><stop offset="0" stop-color="#fdf09f"/><stop offset="1" stop-color="#edd400"/></radialGradient><linearGradient id="C" href="#L"><stop offset="0" stop-color="#9ee757"/><stop offset="1" stop-color="#8ae234" stop-opacity="0"/></linearGradient><radialGradient r="16.171" fy="31.535" fx="27.48" cy="31.535" cx="27.48" gradientTransform="matrix(-0.51275856,1.2093067,-1.1941468,-0.5063306,79.421364,14.775085)" id="D" href="#C"/><radialGradient href="#C" id="E" cx="48.103" cy="37.477" fx="48.103" fy="37.477" r="15.728" gradientTransform="matrix(0.30044954,0.37052027,-0.96278616,0.78070947,45.748818,-11.219064)"/><linearGradient id="F" x1="23.125" y1="-.812" x2="25.867" y2="10.483" href="#L"><stop offset="0" stop-color="#8a0909"/><stop offset="1" stop-color="#ff0606"/></linearGradient><linearGradient y2="57.156" x2="43.582" y1="47.275" x1="40.133" id="G" href="#L"><stop offset="0" stop-color="#8a0909"/><stop offset="1" stop-color="#ff0606"/></linearGradient><linearGradient y2="66.093" x2="32.294" y1="56.3" x1="28.315" id="H" href="#L"><stop offset="0" stop-color="#8a0909"/><stop offset="1" stop-color="#ff0606"/></linearGradient><linearGradient y2="35.077" x2="11.287" y1="24.047" x1="7.484" id="I" href="#L"><stop offset="0" stop-color="#8a0909"/><stop offset="1" stop-color="#ff0606"/></linearGradient><linearGradient href="#A" id="J" x1="27.262" y1="41.046" x2="37.259" y2="56.671"/><linearGradient href="#A" id="K" x1="12.504" y1="54.305" x2="17.635" y2="62.055"/><linearGradient id="L" gradientUnits="userSpaceOnUse"/></defs><g transform="translate(0 -16)"><path d="M1.879 61.299c2.557-1.188 4.88-1.444 6.105-1.367l5.844.222c2.279-.012 4.042-.483 4.41-3.494.051-.418 1.174-.893.883-1.189-.878-.893-4.227-2.423-5.109-3.785" fill="url(#K)" class="G"/><path d="M29.906 36.313l-2.312 2.406 13.438 12.875 2.313-2.406-13.437-12.875z" fill="#c00" class="C"/><path d="M35.352 48.269h11.719v5.821H35.352z" class="B D E F"/><path d="M22.313 21.719l.031 13.531h3.344l-.031-13.531h-3.344z" fill="#c00" class="C"/><path d="M16.88 17.018h14.065v6.356H16.88z" class="B D E F"/><path d="M27.906 43.063l-3.25.813 3.625 15.031 3.25-.781-3.625-15.062z" fill="#c00" class="C"/><path d="M44.393 34.902c-1.839.177-12.107 5.088-12.858 5.411s-9.334 4.747-12.046 7.076-3.228 2.785-3.728 5.221c.833.844 2.196 2.171 3.527 2.944 3.302-.092 3.844-.425 7.257-2.169s9.508-7.304 10.025-7.823 9.449-8.879 9.312-10.06c-.15-1.022-.741-.678-1.489-.602z" fill="url(#J)"/><path d="M7.375 26.156l-2.312 2.406 13.469 12.875 2.313-2.406L7.375 26.156z" fill="#c00" class="C"/><path d="M1.311 25.915h14.065v6.356H1.311z" class="B D E F"/><g class="G"><g stroke="#d39f00"><path d="M1.058 61.154c2.413-1.46 4.169-2.161 5.395-2.217 2.035-.093 4.636.228 6.385.027 2.264-.26 4.395-1.596 4.432-4.629.005-.421.2-.92-.121-1.183-.97-.792-1.565-3.021-2.59-4.279" fill="#edd400"/><path d="M1.134 61.212c1.778-2.189 2.715-3.831 2.94-5.038.373-2.002.413-4.623.853-6.328.57-2.207 2.187-4.133 5.196-3.752.418.053.939-.072 1.155.283.651 1.07 2.136 1.527 3.241 2.716" fill="#fcec86"/></g><path d="M1.213 61.151l6.57-5.84c.532-.502 1.911-.619 2.559-1.225.483-.451.931-1.185.54-1.717s-1.183-.106-1.832.5-.621 1.434-1.268 2.442" fill="#c4a000" stroke="#ac7f00"/><path d="M46.71 22.707s-.419-.495-1.131-.82c-1.779-.813-12.791 5.762-13.672 6.218s-10.764 6.229-13.862 9.737-3.655 4.238-4.076 8.1c1.068 1.42 2.87 3.78 4.534 5.129 3.976.125 4.793-.314 8.779-2.826S38.485 36.97 39.069 36.182s8.444-10.461 8.191-12.364c-.096-.718-.703-1.274-.703-1.274" fill="#4e9a06" stroke="#506040"/><path d="M44.446 22.18c-1.722.272-12.693 6.546-13.481 6.946s-9.754 5.955-12.525 9.028-3.547 4.143-3.924 7.525c.955 1.244 2.889 3.642 4.377 4.823 3.557.109 3.994-1.162 7.56-3.363s10.022-9.624 10.545-10.315 9.572-11.745 9.345-13.411c-.23-1.444-1.282-1.224-1.897-1.234z" fill="url(#E)"/><path d="M17.004 53.27c-2.899-2.542-3.924-4.852-5.24-6.475-.332-.136-.606-.681-.485-.95.412-.919 1.023-1.303 2.119-.983.649.19.794.836.778.997.777 1.169 2.395 3.469 4.313 5.31.171.023.788.338.835.998.08 1.114-.439 1.612-1.448 1.802-.296.056-.78-.324-.872-.7z" fill="url(#B)" stroke="#d39f00"/></g><path d="M23.447 57.197h11.719v5.821H23.447z" class="B D E F"/><g fill="none"><path d="m 44.670666,22.879598 c -1.972099,0.115493 -12.723985,6.264805 -13.512101,6.664849 -0.788105,0.400047 -9.754344,5.986432 -12.525475,9.059505 -2.771132,3.073071 -3.29741,3.673988 -3.673949,7.056173 0.955385,1.244001 2.513738,3.204641 4.002046,4.385591 3.557008,0.109085 4.118978,-0.318655 7.685223,-2.518912 3.566254,-2.200254 9.772138,-9.561343 10.295204,-10.252327 0.523074,-0.690987 9.602873,-11.775861 9.376312,-13.442575 -0.229835,-1.44416 -0.844961,-1.005261 -1.64726,-0.952304 z" stroke="url(#D)"/><g class="B"><path transform="translate(0 16)" d="M 17.4375 1.5312498807907104 L 30.40625 1.5312498807907104 L 30.40625 6.8749998807907104 L 17.4375 6.8749998807907104 Z" stroke="url(#F)"/><path d="M 35.859375 48.734375 L 46.546875 48.734375 L 46.546875 53.578125 L 35.859375 53.578125 Z" stroke="url(#G)"/><path d="M 23.953125 57.671875 L 34.640625 57.671875 L 34.640625 62.515625 L 23.953125 62.515625 Z" stroke="url(#H)"/><path d="M 1.796875 26.390625 L 14.765625 26.390625 L 14.765625 31.734375 L 1.796875 31.734375 Z" stroke="url(#I)"/></g></g></g></svg>